<svg xmlns="http://www.w3.org/2000/svg" width="46" height="46" viewBox="0 0 46 46">
  <g id="Groupe_10438" data-name="Groupe 10438" transform="translate(-191 -353)">
    <g id="Groupe_19" data-name="Groupe 19" transform="translate(26 153)">
      <g id="Groupe_18" data-name="Groupe 18" transform="translate(86 3)">
        <circle id="Ellipse_157" data-name="Ellipse 157" cx="23" cy="23" r="23" transform="translate(79 197)" fill="#5faee5"/>
      </g>
    </g>
    <path id="fi-rr-euro" d="M21.715,18.363A10,10,0,0,1,4.461,15H15a1,1,0,0,0,0-2H4.051a9.829,9.829,0,0,1,0-2H15a1,1,0,0,0,0-2H4.461A10,10,0,0,1,21.715,5.637a1,1,0,1,0,1.542-1.274A11.989,11.989,0,0,0,2.4,9H1a1,1,0,0,0,0,2H2.051c-.028.331-.051.662-.051,1s.023.669.051,1H1a1,1,0,0,0,0,2H2.4a11.989,11.989,0,0,0,20.862,4.637,1,1,0,0,0-1.542-1.274Z" transform="translate(202 363.996)" fill="#fff"/>
  </g>
</svg>
