<svg xmlns="http://www.w3.org/2000/svg" width="48.011" height="48" viewBox="0 0 48.011 48">
  <path id="fi-rr-megaphone" d="M34,0a2,2,0,0,0-2,2c0,5.9-5.166,8-10,8H8a8,8,0,0,0-8,8v4a7.958,7.958,0,0,0,3.028,6.218l7.144,15.944A6.466,6.466,0,0,0,16.078,48a5.964,5.964,0,0,0,5.44-8.4l-4.4-9.6H22c4.834,0,10,2.1,10,8a2,2,0,0,0,4,0V2A2,2,0,0,0,34,0ZM17.874,41.238A1.966,1.966,0,0,1,16.078,44a2.464,2.464,0,0,1-2.252-1.468L8.21,30h4.508ZM32,29.2A15.446,15.446,0,0,0,22,26H8a4,4,0,0,1-4-4V18a4,4,0,0,1,4-4H22a15.446,15.446,0,0,0,10-3.19Zm15.8,1.7a2,2,0,0,1-2.684.9l-4-2A2,2,0,1,1,42.9,26.22l4,2a2,2,0,0,1,.9,2.674Zm-7.58-18a2,2,0,0,1,.9-2.684l4-2A2,2,0,0,1,46.9,11.8l-4,2A2,2,0,0,1,40.22,12.9ZM40,20a2,2,0,0,1,2-2h4a2,2,0,0,1,0,4H42A2,2,0,0,1,40,20Z" fill="#1ec501"/>
</svg>
