<svg xmlns="http://www.w3.org/2000/svg" width="136" height="62.201" viewBox="0 0 136 62.201">
<g id="Groupe_635" data-name="Groupe 635" transform="translate(-567.84 -98.032)">
<g id="Groupe_633" data-name="Groupe 633">
<path id="Tracé_901" data-name="Tracé 901" d="M673.782,109.055l-6.726,4.835v15.2a15.505,15.505,0,0,1,4.439.957,14.271,14.271,0,0,1,2.287,1.132V109.055Z" fill="none"/>
<path id="Tracé_902" data-name="Tracé 902" d="M688.063,116.814v12.829c.126-.037.245-.081.373-.116a18.459,18.459,0,0,1,4.824-.6c.658,0,1.3.026,1.928.076v-7.444Z" fill="none"/>
<path id="Tracé_903" data-name="Tracé 903" d="M657.341,120.873v10.378a13.813,13.813,0,0,1,2.5-1.236,15.44,15.44,0,0,1,3.476-.826V116.576Z" fill="none"/>
<path id="Tracé_904" data-name="Tracé 904" d="M673.782,131.176a13,13,0,0,1,2.289,1.758,12.869,12.869,0,0,1,2.989,4.545,14.2,14.2,0,0,1,.587,1.92h.113V113.442l-5.978-4.3Z" fill="#0060a2"/>
<path id="Tracé_905" data-name="Tracé 905" d="M663.6,116.375l-.279.2h0v12.613a18.554,18.554,0,0,1,2.343-.159c.474,0,.936.023,1.393.057V118.859Z" fill="#0060a2"/>
<path id="Tracé_906" data-name="Tracé 906" d="M657.341,131.251v-5.339l-3.505-2.519-.231.166v11.316a12.3,12.3,0,0,1,1.648-1.989A12.645,12.645,0,0,1,657.341,131.251Z" fill="#0060a2"/>
<path id="Tracé_907" data-name="Tracé 907" d="M657.341,125.912v-5.039l5.979-4.3h0l.279-.2,3.457,2.484V113.89l6.726-4.835v.09l5.978,4.3v-8.953l-.008.006v-1.389l-5.97-5.074-30.568,21.922V130.2l.013-.014a1.378,1.378,0,0,1,.978-.411,10.331,10.331,0,0,1,2.3.261v-1.378l7.1-5.1.231-.166Z" fill="#1588ca"/>
<path id="Tracé_908" data-name="Tracé 908" d="M687.98,121.848v7.821l.083-.026V116.814l7.125,4.749v7.444c.607.049,1.2.121,1.766.217a12.82,12.82,0,0,1,2.983.862V119.207l-16.183-12.884v8.009l4.226,2.817Z" fill="#0060a2"/>
<path id="Tracé_909" data-name="Tracé 909" d="M687.98,129.669v-12.52l-4.226-2.817v17.554a8.875,8.875,0,0,1,.8-.618A12.38,12.38,0,0,1,687.98,129.669Z" fill="#1588ca"/>
</g>
<g id="Groupe_634" data-name="Groupe 634">
<path id="Tracé_910" data-name="Tracé 910" d="M568.34,138.6a23.814,23.814,0,0,1,1.608-9.059A18.272,18.272,0,0,1,580.911,118.9a24.923,24.923,0,0,1,16.345,0,19.05,19.05,0,0,1,6.6,4.038,18.572,18.572,0,0,1,4.431,6.6,23.814,23.814,0,0,1,1.608,9.059,24.5,24.5,0,0,1-1.576,9.091,18.342,18.342,0,0,1-4.365,6.631,18.639,18.639,0,0,1-6.6,4.036,24.09,24.09,0,0,1-8.27,1.379,23.636,23.636,0,0,1-8.272-1.411,18.439,18.439,0,0,1-6.564-4.1,18.952,18.952,0,0,1-4.332-6.63,24.048,24.048,0,0,1-1.576-8.993m11.816,0q0,5.975,2.429,8.927a8.7,8.7,0,0,0,13.063,0q2.429-2.953,2.429-8.927,0-5.908-2.4-8.863a7.963,7.963,0,0,0-6.532-2.953,8.118,8.118,0,0,0-6.532,2.921q-2.46,2.922-2.461,8.895" fill="#1ec501" stroke="#fff" stroke-miterlimit="10" stroke-width="1"/>
<path id="Tracé_911" data-name="Tracé 911" d="M612.766,125.808a4.386,4.386,0,0,1,1.272-3.194,5.02,5.02,0,0,1,6.737,0,4.642,4.642,0,0,1,0,6.387,5.02,5.02,0,0,1-6.737,0,4.383,4.383,0,0,1-1.272-3.193m8.883,30.94q-.551.1-1.622.274a13.547,13.547,0,0,1-2.171.175,11.71,11.71,0,0,1-1.971-.15,3.352,3.352,0,0,1-1.472-.6,2.865,2.865,0,0,1-.923-1.222,5.278,5.278,0,0,1-.325-2.021V132.894q.549-.1,1.622-.275a13.538,13.538,0,0,1,2.171-.174,11.832,11.832,0,0,1,1.971.149,3.365,3.365,0,0,1,1.472.6,2.881,2.881,0,0,1,.923,1.223,5.3,5.3,0,0,1,.325,2.021Z" fill="#1ec501" stroke="#fff" stroke-miterlimit="10" stroke-width="1"/>
<path id="Tracé_912" data-name="Tracé 912" d="M650.743,152.356a6.238,6.238,0,0,1-1.373,3.593A4.174,4.174,0,0,1,646.1,157.2a5.292,5.292,0,0,1-2.845-.774,11.117,11.117,0,0,1-2.7-2.62l-4.94-6.188V156.7q-.549.1-1.622.275a13.548,13.548,0,0,1-2.171.175,11.71,11.71,0,0,1-1.971-.15,3.364,3.364,0,0,1-1.472-.6,2.873,2.873,0,0,1-.923-1.222,5.283,5.283,0,0,1-.325-2.022V124.26q.549-.15,1.622-.324a13.538,13.538,0,0,1,2.171-.175,11.718,11.718,0,0,1,1.971.15,3.362,3.362,0,0,1,1.473.6,2.892,2.892,0,0,1,.923,1.223,5.3,5.3,0,0,1,.324,2.02v13.175l8.583-8.783a6.913,6.913,0,0,1,4.167,1.148,3.458,3.458,0,0,1,1.572,2.894,3.653,3.653,0,0,1-.25,1.373,5,5,0,0,1-.773,1.272,11.336,11.336,0,0,1-1.347,1.372q-.823.725-1.922,1.672l-2.894,2.495Z" fill="#1ec501" stroke="#fff" stroke-miterlimit="10" stroke-width="1"/>
<path id="Tracé_913" data-name="Tracé 913" d="M678.738,144.272a15.046,15.046,0,0,1-.948,5.514,11.169,11.169,0,0,1-2.67,4.067,11.346,11.346,0,0,1-4.117,2.5,15.9,15.9,0,0,1-5.34.849,15.1,15.1,0,0,1-5.339-.9,11.747,11.747,0,0,1-4.117-2.57,11.457,11.457,0,0,1-2.67-4.067,15.637,15.637,0,0,1,0-10.729,11.465,11.465,0,0,1,2.67-4.067,11.747,11.747,0,0,1,4.117-2.57,15.1,15.1,0,0,1,5.339-.9,14.732,14.732,0,0,1,5.34.924,12.069,12.069,0,0,1,4.117,2.595,11.464,11.464,0,0,1,2.67,4.067,14.279,14.279,0,0,1,.948,5.29m-17.466,0a7.888,7.888,0,0,0,1.172,4.666,3.807,3.807,0,0,0,3.269,1.622,3.66,3.66,0,0,0,3.219-1.648,8.17,8.17,0,0,0,1.123-4.64,7.916,7.916,0,0,0-1.148-4.616,4.054,4.054,0,0,0-6.487,0,7.909,7.909,0,0,0-1.148,4.616" fill="#1ec501" stroke="#fff" stroke-miterlimit="10" stroke-width="1"/>
<path id="Tracé_914" data-name="Tracé 914" d="M703.34,149.112a7.023,7.023,0,0,1-2.844,5.939q-2.844,2.145-8.384,2.146a23.66,23.66,0,0,1-3.892-.3,11.175,11.175,0,0,1-3.069-.923,5.486,5.486,0,0,1-2-1.572,3.587,3.587,0,0,1-.724-2.245,3.826,3.826,0,0,1,.5-2.021,5.057,5.057,0,0,1,1.2-1.373,19.917,19.917,0,0,0,3.318,1.422,13.617,13.617,0,0,0,4.317.624,5.044,5.044,0,0,0,2.37-.449,1.344,1.344,0,0,0,.824-1.2,1.255,1.255,0,0,0-.6-1.1,5.6,5.6,0,0,0-2-.649l-1.5-.3a14,14,0,0,1-6.462-2.67,6.5,6.5,0,0,1-2.12-5.215,6.884,6.884,0,0,1,3.044-5.838,11.226,11.226,0,0,1,3.468-1.547,17.014,17.014,0,0,1,4.466-.549,20.9,20.9,0,0,1,3.468.274,11.306,11.306,0,0,1,2.82.824,5.093,5.093,0,0,1,1.9,1.422,3.214,3.214,0,0,1,.7,2.071,4.264,4.264,0,0,1-.424,1.971,4.424,4.424,0,0,1-1.073,1.372,6.24,6.24,0,0,0-1.2-.524q-.8-.273-1.746-.5t-1.922-.375a11.846,11.846,0,0,0-1.771-.15,6.832,6.832,0,0,0-2.545.375,1.24,1.24,0,0,0-.9,1.172,1.055,1.055,0,0,0,.5.9,5.732,5.732,0,0,0,1.9.649l1.548.349q4.791,1.1,6.811,3.019a6.541,6.541,0,0,1,2.021,4.965" fill="#1ec501" stroke="#fff" stroke-miterlimit="10" stroke-width="1"/>
</g>
</g>
</svg>
