<svg xmlns="http://www.w3.org/2000/svg" width="207.835" height="121.034" viewBox="0 0 207.835 121.034">
<g id="Groupe_3354" data-name="Groupe 3354" transform="translate(-9.646 -5.849)">
<g id="Groupe_3352" data-name="Groupe 3352" transform="translate(9.646 5.849)">
<g id="Groupe_3345" data-name="Groupe 3345" transform="translate(115.22)">
<path id="Tracé_1020" data-name="Tracé 1020" d="M372.007,45.042,361.7,52.452V75.744a23.745,23.745,0,0,1,6.8,1.468,21.78,21.78,0,0,1,3.506,1.735V45.042Z" transform="translate(-325.155 -28.147)" fill="none"/>
<path id="Tracé_1021" data-name="Tracé 1021" d="M436.39,72.628V92.292c.193-.057.375-.125.572-.178a28.289,28.289,0,0,1,7.393-.914q1.513,0,2.955.118V79.908Z" transform="translate(-367.649 -43.841)" fill="none"/>
<path id="Tracé_1022" data-name="Tracé 1022" d="M327.157,78.367V94.273a21.142,21.142,0,0,1,3.836-1.893,23.613,23.613,0,0,1,5.327-1.266V71.781Z" transform="translate(-305.504 -43.359)" fill="none"/>
<path id="Tracé_1023" data-name="Tracé 1023" d="M385.612,79.128a19.213,19.213,0,0,1,8.091,9.66,21.927,21.927,0,0,1,.9,2.944h.173V51.946l-9.163-6.586Z" transform="translate(-338.76 -28.328)" fill="#0060a2"/>
<path id="Tracé_1024" data-name="Tracé 1024" d="M348.842,71.066l-.429.308h0V90.707A28.468,28.468,0,0,1,352,90.463c.726,0,1.436.035,2.136.087V74.875Z" transform="translate(-317.597 -42.952)" fill="#0060a2"/>
<path id="Tracé_1025" data-name="Tracé 1025" d="M319.6,108.063V99.881l-5.373-3.862-.354.255v17.345a18.885,18.885,0,0,1,2.527-3.049A19.4,19.4,0,0,1,319.6,108.063Z" transform="translate(-297.946 -57.148)" fill="#0060a2"/>
<path id="Tracé_1026" data-name="Tracé 1026" d="M298.58,48.581V40.857l9.163-6.586h0l.429-.308,5.3,3.809V30.154l10.309-7.41v.137l9.163,6.586V15.746l-.013.009v-2.13l-9.15-7.776-46.852,33.6v15.71l.02-.021a2.106,2.106,0,0,1,1.5-.631,15.886,15.886,0,0,1,3.527.4V52.8l10.881-7.822.354-.255Z" transform="translate(-276.927 -5.849)" fill="#1588ca"/>
<path id="Tracé_1027" data-name="Tracé 1027" d="M427.546,59.122V71.109l.127-.04V51.406l10.92,7.28V70.095c.931.075,1.837.185,2.708.331a19.662,19.662,0,0,1,4.572,1.323V55.073l-24.8-19.748V47.6l6.478,4.319Z" transform="translate(-358.932 -22.618)" fill="#0060a2"/>
<path id="Tracé_1028" data-name="Tracé 1028" d="M427.546,87.311V68.122L421.068,63.8V90.709a13.641,13.641,0,0,1,1.22-.948A18.974,18.974,0,0,1,427.546,87.311Z" transform="translate(-358.932 -38.82)" fill="#1588ca"/>
</g>
<g id="Groupe_3351" data-name="Groupe 3351" transform="translate(0 27.884)">
<g id="Groupe_3346" data-name="Groupe 3346">
<path id="Tracé_1029" data-name="Tracé 1029" d="M10.709,103.893a36.487,36.487,0,0,1,2.464-13.885,27.994,27.994,0,0,1,16.8-16.3A36.251,36.251,0,0,1,42.5,71.6a36.251,36.251,0,0,1,12.525,2.113A29.17,29.17,0,0,1,65.141,79.9a28.459,28.459,0,0,1,6.792,10.111A36.512,36.512,0,0,1,74.4,103.893a37.554,37.554,0,0,1-2.414,13.935,28.121,28.121,0,0,1-6.691,10.163,28.572,28.572,0,0,1-10.112,6.187A36.964,36.964,0,0,1,42.5,136.291a36.2,36.2,0,0,1-12.678-2.163,28.257,28.257,0,0,1-10.061-6.289,29.045,29.045,0,0,1-6.64-10.162,36.864,36.864,0,0,1-2.414-13.784m18.11,0q0,9.157,3.723,13.684A12.232,12.232,0,0,0,42.5,122.1a12.343,12.343,0,0,0,10.061-4.527q3.721-4.527,3.723-13.684,0-9.055-3.673-13.583A12.2,12.2,0,0,0,42.6,85.783,12.441,12.441,0,0,0,32.591,90.26q-3.772,4.479-3.772,13.633" transform="translate(-10.251 -71.138)" fill="#1ec501"/>
<path id="Tracé_1030" data-name="Tracé 1030" d="M41.9,136.145a36.832,36.832,0,0,1-12.838-2.192,28.855,28.855,0,0,1-10.222-6.39,29.629,29.629,0,0,1-6.746-10.32,37.5,37.5,0,0,1-2.447-13.955,37.1,37.1,0,0,1,2.5-14.058,28.451,28.451,0,0,1,17.07-16.557A36.873,36.873,0,0,1,41.9,70.533a36.875,36.875,0,0,1,12.682,2.141,29.76,29.76,0,0,1,10.27,6.285,29.038,29.038,0,0,1,6.9,10.272,37.126,37.126,0,0,1,2.5,14.058,38.18,38.18,0,0,1-2.447,14.1A28.7,28.7,0,0,1,65,127.718,29.158,29.158,0,0,1,54.731,134,37.588,37.588,0,0,1,41.9,136.145Zm0-64.7a35.957,35.957,0,0,0-12.37,2.086A27.535,27.535,0,0,0,12.993,89.577a36.2,36.2,0,0,0-2.43,13.711A36.594,36.594,0,0,0,12.944,116.9a28.727,28.727,0,0,0,6.535,10,27.933,27.933,0,0,0,9.9,6.186A35.91,35.91,0,0,0,41.9,135.228a36.671,36.671,0,0,0,12.52-2.086,28.246,28.246,0,0,0,9.952-6.088,27.79,27.79,0,0,0,6.581-10,37.269,37.269,0,0,0,2.382-13.766A36.225,36.225,0,0,0,70.9,89.577a28.134,28.134,0,0,0-6.682-9.951,28.849,28.849,0,0,0-9.955-6.091A35.959,35.959,0,0,0,41.9,71.449Zm0,50.509a12.724,12.724,0,0,1-10.316-4.7c-2.539-3.087-3.827-7.789-3.827-13.974s1.305-10.871,3.88-13.928A12.934,12.934,0,0,1,42,84.72a12.694,12.694,0,0,1,10.367,4.7c2.505,3.089,3.776,7.756,3.776,13.872,0,6.183-1.288,10.885-3.827,13.974A12.835,12.835,0,0,1,41.9,121.958ZM42,85.636a12.055,12.055,0,0,0-9.661,4.315c-2.432,2.887-3.665,7.375-3.665,13.338s1.217,10.473,3.618,13.393a11.846,11.846,0,0,0,9.608,4.36,11.956,11.956,0,0,0,9.707-4.36c2.4-2.921,3.619-7.428,3.619-13.393,0-5.9-1.2-10.373-3.571-13.295A11.818,11.818,0,0,0,42,85.636Z" transform="translate(-9.646 -70.533)" fill="#fff"/>
</g>
<g id="Groupe_3347" data-name="Groupe 3347" transform="translate(68.092 5.813)">
<path id="Tracé_1031" data-name="Tracé 1031" d="M168.665,91.965a6.724,6.724,0,0,1,1.951-4.9,7.7,7.7,0,0,1,10.326,0,7.119,7.119,0,0,1,0,9.79,7.7,7.7,0,0,1-10.326,0,6.719,6.719,0,0,1-1.951-4.895m13.616,47.423q-.843.153-2.486.421a20.725,20.725,0,0,1-3.326.267,18.035,18.035,0,0,1-3.022-.229,5.151,5.151,0,0,1-2.256-.918,4.41,4.41,0,0,1-1.415-1.874,8.1,8.1,0,0,1-.5-3.1V102.826q.841-.152,2.485-.42a20.68,20.68,0,0,1,3.328-.268,17.978,17.978,0,0,1,3.021.23,5.144,5.144,0,0,1,2.257.918,4.42,4.42,0,0,1,1.415,1.874,8.126,8.126,0,0,1,.5,3.1Z" transform="translate(-168.207 -84.623)" fill="#1ec501"/>
<path id="Tracé_1032" data-name="Tracé 1032" d="M175.863,139.93a18.588,18.588,0,0,1-3.1-.236,5.626,5.626,0,0,1-2.453-1,4.88,4.88,0,0,1-1.563-2.064,8.582,8.582,0,0,1-.533-3.275V101.838l.377-.068q.844-.153,2.493-.422a21.213,21.213,0,0,1,3.4-.274,18.506,18.506,0,0,1,3.1.236,5.622,5.622,0,0,1,2.454,1,4.892,4.892,0,0,1,1.563,2.063,8.6,8.6,0,0,1,.533,3.275v31.514l-.377.068q-.845.153-2.494.422A21.19,21.19,0,0,1,175.863,139.93Zm-6.732-37.324v30.747a7.7,7.7,0,0,0,.461,2.92,3.98,3.98,0,0,0,1.267,1.685,4.72,4.72,0,0,0,2.059.833,17.613,17.613,0,0,0,2.945.222,20.3,20.3,0,0,0,3.253-.262q1.3-.213,2.1-.352V107.652a7.716,7.716,0,0,0-.462-2.921,3.985,3.985,0,0,0-1.267-1.685,4.726,4.726,0,0,0-2.059-.833,17.633,17.633,0,0,0-2.943-.223,20.328,20.328,0,0,0-3.254.262Q169.927,102.466,169.131,102.605Zm6.042-3.9a7.375,7.375,0,0,1-5.49-2.127,7.575,7.575,0,0,1,0-10.432,8.152,8.152,0,0,1,10.98,0,7.577,7.577,0,0,1,0,10.433A7.376,7.376,0,0,1,175.174,98.7Zm0-13.768a6.414,6.414,0,0,0-4.835,1.851,6.66,6.66,0,0,0,0,9.149,7.241,7.241,0,0,0,9.672,0,6.661,6.661,0,0,0,0-9.149A6.414,6.414,0,0,0,175.174,84.934Z" transform="translate(-167.602 -84.018)" fill="#fff"/>
</g>
<g id="Groupe_3348" data-name="Groupe 3348" transform="translate(90.121 9.561)">
<path id="Tracé_1033" data-name="Tracé 1033" d="M255.947,137.6a9.557,9.557,0,0,1-2.1,5.507,6.4,6.4,0,0,1-5.01,1.913,8.1,8.1,0,0,1-4.36-1.186,17.016,17.016,0,0,1-4.13-4.016l-7.572-9.485v13.921q-.843.152-2.486.42a20.69,20.69,0,0,1-3.327.268,17.981,17.981,0,0,1-3.022-.229,5.137,5.137,0,0,1-2.256-.918,4.407,4.407,0,0,1-1.415-1.874,8.092,8.092,0,0,1-.5-3.1V94.539q.841-.23,2.486-.5a20.711,20.711,0,0,1,3.327-.268A18.032,18.032,0,0,1,228.6,94a5.159,5.159,0,0,1,2.257.918,4.432,4.432,0,0,1,1.415,1.874,8.117,8.117,0,0,1,.5,3.1v20.194l13.156-13.462a10.6,10.6,0,0,1,6.387,1.759,5.3,5.3,0,0,1,2.408,4.436,5.609,5.609,0,0,1-.382,2.1,7.652,7.652,0,0,1-1.185,1.95,17.406,17.406,0,0,1-2.065,2.1q-1.262,1.11-2.945,2.562l-4.436,3.825Z" transform="translate(-219.31 -93.316)" fill="#1ec501"/>
<path id="Tracé_1034" data-name="Tracé 1034" d="M248.229,144.876a8.59,8.59,0,0,1-4.6-1.255,17.55,17.55,0,0,1-4.25-4.123l-6.753-8.459v13l-.377.069q-.845.153-2.494.422a21.211,21.211,0,0,1-3.4.274,18.56,18.56,0,0,1-3.1-.236,5.612,5.612,0,0,1-2.454-1,4.876,4.876,0,0,1-1.562-2.063,8.567,8.567,0,0,1-.533-3.275V93.585l.337-.092c.572-.156,1.4-.322,2.533-.507a21.244,21.244,0,0,1,3.4-.274,18.549,18.549,0,0,1,3.1.236,5.634,5.634,0,0,1,2.454,1,4.907,4.907,0,0,1,1.563,2.063,8.6,8.6,0,0,1,.533,3.275v19.069l12.5-12.8h.193a11.087,11.087,0,0,1,6.658,1.847,5.762,5.762,0,0,1,2.6,4.807,6.077,6.077,0,0,1-.416,2.274,8.141,8.141,0,0,1-1.254,2.068,17.876,17.876,0,0,1-2.119,2.16q-1.262,1.11-2.948,2.564l-4.063,3.5,12.045,12.044-.024.218a10.039,10.039,0,0,1-2.218,5.765A6.861,6.861,0,0,1,248.229,144.876Zm-16.521-16.453,8.389,10.507a16.68,16.68,0,0,0,4.013,3.912,7.686,7.686,0,0,0,4.119,1.118A5.989,5.989,0,0,0,252.9,142.2a8.99,8.99,0,0,0,1.963-5.032l-12.431-12.431,4.81-4.147q1.681-1.45,2.942-2.559a16.971,16.971,0,0,0,2.011-2.048,7.219,7.219,0,0,0,1.117-1.833,5.169,5.169,0,0,0,.35-1.933,4.83,4.83,0,0,0-2.22-4.066,10.077,10.077,0,0,0-5.925-1.67l-13.806,14.127V99.288a7.721,7.721,0,0,0-.461-2.92,4,4,0,0,0-1.268-1.685,4.725,4.725,0,0,0-2.059-.833,17.614,17.614,0,0,0-2.943-.223,20.354,20.354,0,0,0-3.254.262c-.891.145-1.583.278-2.1.4v43.931a7.7,7.7,0,0,0,.462,2.921,3.98,3.98,0,0,0,1.267,1.685,4.706,4.706,0,0,0,2.058.832,17.637,17.637,0,0,0,2.944.223,20.368,20.368,0,0,0,3.253-.262q1.3-.213,2.1-.353Z" transform="translate(-218.705 -92.711)" fill="#fff"/>
</g>
<g id="Groupe_3349" data-name="Groupe 3349" transform="translate(129.129 21.263)">
<path id="Tracé_1035" data-name="Tracé 1035" d="M350.337,140.656a23.045,23.045,0,0,1-1.453,8.452,17.12,17.12,0,0,1-4.093,6.234,17.388,17.388,0,0,1-6.309,3.824,24.4,24.4,0,0,1-8.185,1.3,23.161,23.161,0,0,1-8.184-1.377,18.011,18.011,0,0,1-6.31-3.939,17.563,17.563,0,0,1-4.091-6.234,23.967,23.967,0,0,1,0-16.444,17.57,17.57,0,0,1,4.091-6.234,18.023,18.023,0,0,1,6.31-3.939,23.161,23.161,0,0,1,8.184-1.376,22.61,22.61,0,0,1,8.185,1.415,18.488,18.488,0,0,1,6.309,3.978,17.566,17.566,0,0,1,4.093,6.234,21.863,21.863,0,0,1,1.453,8.107m-26.771,0q0,4.667,1.8,7.152a5.831,5.831,0,0,0,5.01,2.486,5.61,5.61,0,0,0,4.933-2.524,12.531,12.531,0,0,0,1.721-7.114q0-4.589-1.759-7.075a6.215,6.215,0,0,0-9.944,0q-1.761,2.487-1.76,7.075" transform="translate(-309.799 -120.463)" fill="#1ec501"/>
<path id="Tracé_1036" data-name="Tracé 1036" d="M329.692,160.32a23.72,23.72,0,0,1-8.345-1.407,18.556,18.556,0,0,1-6.469-4.039,18.1,18.1,0,0,1-4.2-6.395,24.421,24.421,0,0,1,0-16.782,18.112,18.112,0,0,1,4.2-6.394,18.577,18.577,0,0,1,6.469-4.04,23.726,23.726,0,0,1,8.345-1.406,23.158,23.158,0,0,1,8.35,1.446,19.011,19.011,0,0,1,6.464,4.076,18.107,18.107,0,0,1,4.2,6.394,22.418,22.418,0,0,1,1.486,8.276,23.614,23.614,0,0,1-1.485,8.619,17.657,17.657,0,0,1-4.2,6.4,17.926,17.926,0,0,1-6.473,3.925A24.957,24.957,0,0,1,329.692,160.32Zm0-39.546a22.82,22.82,0,0,0-8.023,1.348,17.662,17.662,0,0,0-6.152,3.839,17.208,17.208,0,0,0-3.984,6.074,21.689,21.689,0,0,0-1.422,8.016,21.908,21.908,0,0,0,1.422,8.092,17.191,17.191,0,0,0,3.984,6.074,17.655,17.655,0,0,0,6.152,3.839,22.822,22.822,0,0,0,8.023,1.348,24.051,24.051,0,0,0,8.032-1.275,17.013,17.013,0,0,0,6.145-3.723,16.739,16.739,0,0,0,3.982-6.07,22.7,22.7,0,0,0,1.422-8.285,21.5,21.5,0,0,0-1.421-7.939,17.2,17.2,0,0,0-3.985-6.073,18.114,18.114,0,0,0-6.155-3.879A22.255,22.255,0,0,0,329.692,120.774Zm.077,29.372a6.293,6.293,0,0,1-5.382-2.676c-1.251-1.728-1.884-4.225-1.884-7.421,0-3.142.62-5.611,1.844-7.34a6.673,6.673,0,0,1,10.692,0c1.223,1.73,1.842,4.2,1.842,7.34a13.021,13.021,0,0,1-1.8,7.372A6.068,6.068,0,0,1,329.769,150.147Zm-.077-19.2a5.255,5.255,0,0,0-4.6,2.292,11.756,11.756,0,0,0-1.676,6.81c0,3,.576,5.315,1.711,6.883a5.354,5.354,0,0,0,4.639,2.3,5.134,5.134,0,0,0,4.554-2.324,12.15,12.15,0,0,0,1.642-6.855,11.769,11.769,0,0,0-1.675-6.811A5.264,5.264,0,0,0,329.692,130.948Z" transform="translate(-309.194 -119.858)" fill="#fff"/>
</g>
<g id="Groupe_3350" data-name="Groupe 3350" transform="translate(174.641 21.11)">
<path id="Tracé_1037" data-name="Tracé 1037" d="M448.111,147.873a10.765,10.765,0,0,1-4.359,9.1q-4.361,3.288-12.851,3.289a36.33,36.33,0,0,1-5.966-.459,17.1,17.1,0,0,1-4.7-1.415,8.4,8.4,0,0,1-3.06-2.409,5.506,5.506,0,0,1-1.109-3.442,5.878,5.878,0,0,1,.765-3.1,7.747,7.747,0,0,1,1.837-2.1,30.4,30.4,0,0,0,5.086,2.18,20.884,20.884,0,0,0,6.616.956,7.731,7.731,0,0,0,3.633-.688,2.062,2.062,0,0,0,1.262-1.836,1.921,1.921,0,0,0-.918-1.683,8.546,8.546,0,0,0-3.06-.995l-2.3-.459q-6.654-1.3-9.9-4.092t-3.25-7.994a10.552,10.552,0,0,1,4.666-8.949,17.265,17.265,0,0,1,5.316-2.371,26.1,26.1,0,0,1,6.846-.841,32,32,0,0,1,5.315.42,17.353,17.353,0,0,1,4.322,1.263,7.821,7.821,0,0,1,2.907,2.18,4.928,4.928,0,0,1,1.07,3.174,6.529,6.529,0,0,1-.65,3.021,6.785,6.785,0,0,1-1.645,2.1,9.486,9.486,0,0,0-1.835-.8q-1.225-.42-2.677-.765t-2.945-.574a18.05,18.05,0,0,0-2.715-.23,10.49,10.49,0,0,0-3.9.574,1.9,1.9,0,0,0-1.377,1.8,1.614,1.614,0,0,0,.765,1.376,8.745,8.745,0,0,0,2.906.995l2.372.535q7.342,1.683,10.44,4.628a10.032,10.032,0,0,1,3.1,7.61" transform="translate(-415.376 -120.109)" fill="#1ec501"/>
<path id="Tracé_1038" data-name="Tracé 1038" d="M430.3,160.119a36.988,36.988,0,0,1-6.041-.466,17.623,17.623,0,0,1-4.83-1.456,8.889,8.889,0,0,1-3.223-2.542,5.975,5.975,0,0,1-1.2-3.72,6.347,6.347,0,0,1,.831-3.335,8.251,8.251,0,0,1,1.945-2.227l.239-.188.266.147a30.069,30.069,0,0,0,5.009,2.147,20.549,20.549,0,0,0,6.471.932,7.332,7.332,0,0,0,3.414-.633,1.625,1.625,0,0,0,1.023-1.433,1.457,1.457,0,0,0-.713-1.3,8.187,8.187,0,0,0-2.887-.925l-2.3-.46c-4.494-.878-7.9-2.289-10.114-4.194-2.263-1.943-3.41-4.749-3.41-8.341a11.012,11.012,0,0,1,4.863-9.326,17.8,17.8,0,0,1,5.455-2.436,26.69,26.69,0,0,1,6.966-.857,32.579,32.579,0,0,1,5.392.427,17.865,17.865,0,0,1,4.436,1.3,8.311,8.311,0,0,1,3.074,2.31A5.4,5.4,0,0,1,446.129,127a7.017,7.017,0,0,1-.7,3.231,7.282,7.282,0,0,1-1.756,2.243l-.255.216-.283-.176a9.134,9.134,0,0,0-1.743-.759c-.8-.275-1.69-.528-2.633-.752s-1.933-.417-2.908-.566a17.678,17.678,0,0,0-2.646-.225,10.118,10.118,0,0,0-3.724.538c-.982.409-1.095.98-1.095,1.375a1.16,1.16,0,0,0,.568,1,8.075,8.075,0,0,0,2.74.923l2.377.536c4.954,1.136,8.538,2.731,10.655,4.743a10.517,10.517,0,0,1,3.24,7.943,11.244,11.244,0,0,1-4.541,9.468C440.447,158.981,436.031,160.119,430.3,160.119Zm-12.184-12.835a7.433,7.433,0,0,0-1.5,1.791,5.455,5.455,0,0,0-.7,2.86,5.083,5.083,0,0,0,1.015,3.164,7.982,7.982,0,0,0,2.9,2.275,16.694,16.694,0,0,0,4.577,1.375,36.027,36.027,0,0,0,5.891.453c5.53,0,9.761-1.076,12.575-3.2a10.372,10.372,0,0,0,4.177-8.736,9.632,9.632,0,0,0-2.955-7.278c-2-1.9-5.436-3.415-10.226-4.513l-2.371-.535a9.032,9.032,0,0,1-3.069-1.066,2.082,2.082,0,0,1-.959-1.752,2.333,2.333,0,0,1,1.659-2.221,10.806,10.806,0,0,1,4.076-.609,18.6,18.6,0,0,1,2.785.235c1,.154,2,.349,2.981.581s1.886.491,2.72.777a11.639,11.639,0,0,1,1.627.675,6.463,6.463,0,0,0,1.3-1.751,6.108,6.108,0,0,0,.6-2.811,4.445,4.445,0,0,0-.97-2.889,7.418,7.418,0,0,0-2.741-2.049,16.991,16.991,0,0,0-4.206-1.227,31.729,31.729,0,0,0-5.239-.414,25.765,25.765,0,0,0-6.726.826,16.882,16.882,0,0,0-5.176,2.306,10.1,10.1,0,0,0-4.468,8.572c0,3.312,1.04,5.885,3.091,7.646,2.095,1.8,5.356,3.143,9.694,3.99l2.3.459a8.834,8.834,0,0,1,3.224,1.063,2.362,2.362,0,0,1,1.122,2.064,2.5,2.5,0,0,1-1.5,2.238,8.194,8.194,0,0,1-3.853.745,21.444,21.444,0,0,1-6.761-.98A31.51,31.51,0,0,1,418.112,147.283Z" transform="translate(-414.771 -119.504)" fill="#fff"/>
</g>
</g>
</g>
<g id="Groupe_3353" data-name="Groupe 3353" transform="translate(12.691 107.425)">
<path id="Tracé_1039" data-name="Tracé 1039" d="M16.71,262.106V244.158H18.8v16.058h7.919v1.89Z" transform="translate(-16.71 -243.004)" fill="#fff"/>
<path id="Tracé_1040" data-name="Tracé 1040" d="M47.262,244.158l.184.27q-.319,1.228-.92,2.855t-1.254,3.026h-1.5q.858-3.5,1.252-6.151Z" transform="translate(-32.108 -243.004)" fill="#fff"/>
<path id="Tracé_1041" data-name="Tracé 1041" d="M76.351,244.34a1.349,1.349,0,0,1,.344-1.024,1.271,1.271,0,0,1,1.706.006,1.327,1.327,0,0,1,.357,1.019,1.349,1.349,0,0,1-.357,1.026,1.246,1.246,0,0,1-1.706,0A1.377,1.377,0,0,1,76.351,244.34Zm2.211,17.1H76.524V247.987h2.038Z" transform="translate(-50.641 -242.339)" fill="#fff"/>
<path id="Tracé_1042" data-name="Tracé 1042" d="M110.464,267.712v-8.753a3.628,3.628,0,0,0-.688-2.412,2.655,2.655,0,0,0-2.135-.8,3.443,3.443,0,0,0-2.811,1.093,5.186,5.186,0,0,0-.91,3.364v7.513h-2.038v-8.753a3.626,3.626,0,0,0-.688-2.412,2.672,2.672,0,0,0-2.148-.8,3.326,3.326,0,0,0-2.8,1.148,6.209,6.209,0,0,0-.89,3.762v7.059H93.314V254.257h1.657L95.3,256.1h.1a4,4,0,0,1,1.626-1.535,4.967,4.967,0,0,1,2.349-.552q3.157,0,4.125,2.283h.1a4.287,4.287,0,0,1,1.743-1.67,5.408,5.408,0,0,1,2.6-.614,4.55,4.55,0,0,1,3.417,1.173,5.244,5.244,0,0,1,1.137,3.751v8.777Z" transform="translate(-60.292 -248.61)" fill="#fff"/>
<path id="Tracé_1043" data-name="Tracé 1043" d="M166.523,267.712v-8.753a3.626,3.626,0,0,0-.689-2.412,2.653,2.653,0,0,0-2.135-.8,3.443,3.443,0,0,0-2.811,1.093,5.186,5.186,0,0,0-.91,3.364v7.513h-2.038v-8.753a3.628,3.628,0,0,0-.688-2.412,2.672,2.672,0,0,0-2.148-.8,3.327,3.327,0,0,0-2.8,1.148,6.213,6.213,0,0,0-.89,3.762v7.059h-2.038V254.257h1.657l.331,1.842h.1a4.005,4.005,0,0,1,1.626-1.535,4.967,4.967,0,0,1,2.349-.552q3.157,0,4.125,2.283h.1a4.287,4.287,0,0,1,1.743-1.67,5.406,5.406,0,0,1,2.6-.614,4.551,4.551,0,0,1,3.417,1.173,5.244,5.244,0,0,1,1.137,3.751v8.777Z" transform="translate(-92.185 -248.61)" fill="#fff"/>
<path id="Tracé_1044" data-name="Tracé 1044" d="M216.056,260.972a7.422,7.422,0,0,1-1.656,5.138,5.842,5.842,0,0,1-4.58,1.848,6.063,6.063,0,0,1-3.205-.848,5.6,5.6,0,0,1-2.161-2.431,8.481,8.481,0,0,1-.76-3.707,7.4,7.4,0,0,1,1.646-5.125,5.814,5.814,0,0,1,4.567-1.836,5.69,5.69,0,0,1,4.487,1.879A7.389,7.389,0,0,1,216.056,260.972Zm-10.251,0a6.39,6.39,0,0,0,1.031,3.928,4.093,4.093,0,0,0,6.072.006,6.362,6.362,0,0,0,1.037-3.935,6.256,6.256,0,0,0-1.037-3.9,3.648,3.648,0,0,0-3.064-1.332,3.581,3.581,0,0,0-3.018,1.314A6.317,6.317,0,0,0,205.805,260.972Z" transform="translate(-123.089 -248.61)" fill="#fff"/>
<path id="Tracé_1045" data-name="Tracé 1045" d="M248.723,246.907a5,5,0,0,1,4.119,1.811,9.693,9.693,0,0,1-.011,10.276,4.985,4.985,0,0,1-4.108,1.835,5.826,5.826,0,0,1-2.4-.485,4.515,4.515,0,0,1-1.823-1.492h-.147l-.431,1.731h-1.46v-19.1H244.5v4.641q0,1.559-.1,2.8h.1A4.836,4.836,0,0,1,248.723,246.907Zm-.294,1.706a3.558,3.558,0,0,0-3.008,1.2,9.244,9.244,0,0,0,.024,8.091,3.6,3.6,0,0,0,3.034,1.221,3.141,3.141,0,0,0,2.8-1.37,7.025,7.025,0,0,0,.922-3.934,6.755,6.755,0,0,0-.922-3.916A3.264,3.264,0,0,0,248.429,248.614Z" transform="translate(-145.145 -241.481)" fill="#fff"/>
<path id="Tracé_1046" data-name="Tracé 1046" d="M279.61,244.34a1.351,1.351,0,0,1,.344-1.024,1.272,1.272,0,0,1,1.707.006,1.327,1.327,0,0,1,.357,1.019,1.349,1.349,0,0,1-.357,1.026,1.246,1.246,0,0,1-1.707,0A1.379,1.379,0,0,1,279.61,244.34Zm2.211,17.1h-2.037V247.987h2.037Z" transform="translate(-166.279 -242.339)" fill="#fff"/>
<path id="Tracé_1047" data-name="Tracé 1047" d="M298.611,260.583h-2.038v-19.1h2.038Z" transform="translate(-175.93 -241.481)" fill="#fff"/>
<path id="Tracé_1048" data-name="Tracé 1048" d="M312.733,244.34a1.351,1.351,0,0,1,.344-1.024,1.272,1.272,0,0,1,1.707.006,1.327,1.327,0,0,1,.357,1.019,1.348,1.348,0,0,1-.357,1.026,1.246,1.246,0,0,1-1.707,0A1.379,1.379,0,0,1,312.733,244.34Zm2.211,17.1h-2.038V247.987h2.038Z" transform="translate(-185.123 -242.339)" fill="#fff"/>
<path id="Tracé_1049" data-name="Tracé 1049" d="M334.386,267.957a6.18,6.18,0,0,1-4.708-1.817,7.026,7.026,0,0,1-1.726-5.045,7.805,7.805,0,0,1,1.6-5.169,5.321,5.321,0,0,1,4.3-1.915,5.07,5.07,0,0,1,4,1.664,6.367,6.367,0,0,1,1.473,4.388v1.29h-9.268a5.329,5.329,0,0,0,1.2,3.6,4.138,4.138,0,0,0,3.2,1.228,10.843,10.843,0,0,0,4.3-.908v1.817a10.833,10.833,0,0,1-2.044.669A11.567,11.567,0,0,1,334.386,267.957Zm-.552-12.24a3.332,3.332,0,0,0-2.586,1.055,4.867,4.867,0,0,0-1.135,2.922h7.033a4.475,4.475,0,0,0-.86-2.952A3.02,3.02,0,0,0,333.834,255.718Z" transform="translate(-193.782 -248.61)" fill="#fff"/>
<path id="Tracé_1050" data-name="Tracé 1050" d="M370.357,254.011a7.937,7.937,0,0,1,1.609.147l-.281,1.89a6.968,6.968,0,0,0-1.474-.184,3.582,3.582,0,0,0-2.791,1.326,4.823,4.823,0,0,0-1.161,3.3v7.218H364.22V254.257h1.68l.234,2.492h.1a5.9,5.9,0,0,1,1.8-2.026A4.056,4.056,0,0,1,370.357,254.011Z" transform="translate(-214.415 -248.61)" fill="#fff"/>
<path id="Tracé_1051" data-name="Tracé 1051" d="M415.656,248.041a4.09,4.09,0,0,1-.963,2.812,4.81,4.81,0,0,1-2.73,1.46v.1a5.144,5.144,0,0,1,3.2,1.375,4.048,4.048,0,0,1,1.042,2.9,4.7,4.7,0,0,1-1.78,3.946,8.085,8.085,0,0,1-5.056,1.382,14.55,14.55,0,0,1-2.609-.216,8.889,8.889,0,0,1-2.3-.754V259.1a11.776,11.776,0,0,0,4.985,1.178q4.651,0,4.651-3.646,0-3.264-5.13-3.265H407.2v-1.755h1.793a5.393,5.393,0,0,0,3.326-.927,3.042,3.042,0,0,0,1.228-2.573,2.535,2.535,0,0,0-.9-2.061,3.712,3.712,0,0,0-2.449-.749,7.55,7.55,0,0,0-2.222.319,9.927,9.927,0,0,0-2.382,1.178l-1.031-1.375a8.6,8.6,0,0,1,2.549-1.369,9.258,9.258,0,0,1,3.038-.5,6.206,6.206,0,0,1,4.063,1.2A4.031,4.031,0,0,1,415.656,248.041Z" transform="translate(-237.309 -242.664)" fill="#fff"/>
<path id="Tracé_1052" data-name="Tracé 1052" d="M441.266,280.571a1.824,1.824,0,0,1,.375-1.246,1.356,1.356,0,0,1,1.074-.423,1.453,1.453,0,0,1,1.111.423,1.753,1.753,0,0,1,.4,1.246,1.718,1.718,0,0,1-.4,1.228,1.61,1.61,0,0,1-2.142.044A1.679,1.679,0,0,1,441.266,280.571Z" transform="translate(-258.248 -262.77)" fill="#fff"/>
<path id="Tracé_1053" data-name="Tracé 1053" d="M469.041,252.735q0,4.653-1.466,6.948a5.416,5.416,0,0,1-8.893-.055q-1.51-2.35-1.511-6.893,0-4.69,1.461-6.961a5.421,5.421,0,0,1,8.894.1Q469.042,248.242,469.041,252.735Zm-9.807,0a13.128,13.128,0,0,0,.92,5.7,3.308,3.308,0,0,0,5.886-.025,18.016,18.016,0,0,0,0-11.343,3.317,3.317,0,0,0-5.886-.025A13.045,13.045,0,0,0,459.234,252.735Z" transform="translate(-267.296 -242.631)" fill="#fff"/>
</g>
</g>
</svg>
