<svg xmlns="http://www.w3.org/2000/svg" width="56" height="56" viewBox="0 0 56 56">
  <g id="g_" data-name="g+" transform="translate(-88 -449)">
    <g id="Ellipse_41" data-name="Ellipse 41" transform="translate(88 449)" fill="#fff" stroke="#fff" stroke-width="1">
      <circle cx="28" cy="28" r="28" stroke="none"/>
      <circle cx="28" cy="28" r="27.5" fill="none"/>
    </g>
    <g id="g_2" data-name="g+" transform="translate(108 469)">
      <rect id="Rectangle_121" data-name="Rectangle 121" width="16" height="16" fill="none"/>
      <path id="Tracé_51" data-name="Tracé 51" d="M16,4.4V5.9H14.5V7.4H13V5.8H11.5V4.4H13V2.9h1.5V4.4ZM5.1,4.4H9.9c0,.3.1.5.1.8a4.7,4.7,0,0,1-4.9,5A5.1,5.1,0,0,1,5.1,0,4.938,4.938,0,0,1,8.5,1.3L7.1,2.7a2.666,2.666,0,0,0-2-.8A3.222,3.222,0,0,0,1.9,5.1,3.159,3.159,0,0,0,5.1,8.3,2.724,2.724,0,0,0,8,6.1H5.1Z" transform="translate(0 3)" fill="#1588ca" fill-rule="evenodd"/>
    </g>
  </g>
</svg>
