<svg xmlns="http://www.w3.org/2000/svg" xmlns:xlink="http://www.w3.org/1999/xlink" width="88" height="88" viewBox="0 0 88 88">
  <defs>
    <clipPath id="clip-path">
      <circle id="Ellipse_96" data-name="Ellipse 96" cx="44" cy="44" r="44" transform="translate(0.123 -0.027)" fill="#bce0fd"/>
    </clipPath>
    <clipPath id="clip-path-2">
      <rect id="Rectangle_4763" data-name="Rectangle 4763" width="88" height="88" transform="translate(0.123 -0.027)" fill="none"/>
    </clipPath>
  </defs>
  <g id="Groupe_de_masques_9" data-name="Groupe de masques 9" transform="translate(-0.123 0.027)" clip-path="url(#clip-path)">
    <g id="Groupe_9646" data-name="Groupe 9646">
      <g id="Groupe_9651" data-name="Groupe 9651">
        <g id="Groupe_9650" data-name="Groupe 9650">
          <g id="Groupe_9649" data-name="Groupe 9649" clip-path="url(#clip-path-2)">
            <path id="Tracé_1652" data-name="Tracé 1652" d="M308.258,437.5l-13.078,7.133a11.645,11.645,0,0,0-2.1,1.491,43.795,43.795,0,0,0,56.284.148,11.908,11.908,0,0,0-2.309-1.544l-14-7a5.339,5.339,0,0,1-2.955-4.773v-5.5a20.39,20.39,0,0,0,1.328-1.7,32.386,32.386,0,0,0,4.351-8.771,4.393,4.393,0,0,0,3.119-4.186v-5.867a4.36,4.36,0,0,0-1.464-3.249V395.2S339.17,382,321.3,382s-16.129,13.2-16.129,13.2v8.478a4.392,4.392,0,0,0-1.464,3.249v5.867a4.4,4.4,0,0,0,2.025,3.688,29.2,29.2,0,0,0,5.309,10.974v5.359a5.344,5.344,0,0,1-2.783,4.687Zm0,0" transform="translate(-277.468 -368.767)" fill="#6d7a99"/>
            <path id="Tracé_1653" data-name="Tracé 1653" d="M330.583,376.008a43.806,43.806,0,0,0-28.956,77.337,11.585,11.585,0,0,1,2.075-1.482l13.087-7.133a5.334,5.334,0,0,0,2.783-4.687v-5.359a29.051,29.051,0,0,1-5.309-10.975,4.4,4.4,0,0,1-2.025-3.687v-5.867a4.346,4.346,0,0,1,1.464-3.249v-8.478s-1.74-13.2,16.129-13.2,16.129,13.2,16.129,13.2v8.478a4.377,4.377,0,0,1,1.464,3.249v5.867a4.412,4.412,0,0,1-3.119,4.186,32.159,32.159,0,0,1-4.36,8.771,20.5,20.5,0,0,1-1.319,1.7v5.5a5.34,5.34,0,0,0,2.947,4.773l14.009,7a11.458,11.458,0,0,1,2.3,1.544,43.824,43.824,0,0,0-27.3-77.494Zm0,0" transform="translate(-285.999 -375.999)" fill="#e7eced"/>
          </g>
        </g>
      </g>
    </g>
  </g>
</svg>
