<svg xmlns="http://www.w3.org/2000/svg" width="27.288" height="19.366" viewBox="0 0 27.288 19.366">
  <path id="bed" d="M34.848,94.524h-.44V91a1.763,1.763,0,0,0-1.761-1.761V81.761A1.763,1.763,0,0,0,30.887,80H12.4a1.763,1.763,0,0,0-1.761,1.761v7.482A1.763,1.763,0,0,0,8.88,91v3.521H8.44a.44.44,0,0,0-.44.44v1.761a.44.44,0,0,0,.44.44h.44v1.761a.44.44,0,0,0,.44.44h1.32a.44.44,0,0,0,.431-.354l.37-1.847h20.4l.37,1.847a.44.44,0,0,0,.431.354h1.32a.44.44,0,0,0,.44-.44V97.165h.44a.44.44,0,0,0,.44-.44V94.965A.44.44,0,0,0,34.848,94.524ZM11.521,81.761a.881.881,0,0,1,.88-.88H30.887a.881.881,0,0,1,.88.88v7.482h-.88V87.482a1.763,1.763,0,0,0-1.761-1.761H23.845a1.763,1.763,0,0,0-1.761,1.761v1.761H21.2V87.482a1.763,1.763,0,0,0-1.761-1.761H14.162A1.763,1.763,0,0,0,12.4,87.482v1.761h-.88Zm18.486,5.722v1.761H22.965V87.482a.881.881,0,0,1,.88-.88h5.282a.881.881,0,0,1,.88.88Zm-9.683,0v1.761H13.282V87.482a.881.881,0,0,1,.88-.88h5.282A.881.881,0,0,1,20.324,87.482ZM9.761,91a.881.881,0,0,1,.88-.88H32.648a.881.881,0,0,1,.88.88v3.521H9.761Zm.519,7.482H9.761v-1.32h.783Zm23.248,0h-.519l-.264-1.32h.783Zm.88-2.2H8.88V95.4H34.408Z" transform="translate(-8 -80)" fill="#2a2a43"/>
</svg>
