<svg xmlns="http://www.w3.org/2000/svg" width="68" height="68" viewBox="0 0 68 68">
  <path id="Tracé_7098" data-name="Tracé 7098" d="M85.259,10.413H80.824V5.978a1.478,1.478,0,0,0-2.957,0v4.435H51.259V5.978a1.478,1.478,0,1,0-2.957,0v4.435H43.867a13.347,13.347,0,0,0-13.3,13.3V59.2A13.346,13.346,0,0,0,43.87,72.5H85.259a13.338,13.338,0,0,0,13.3-13.307V23.717c0-4.718-6.46-11.4-6.46-11.4S87.868,10.416,85.259,10.413ZM95.606,59.2A10.359,10.359,0,0,1,85.259,69.543H43.867A10.361,10.361,0,0,1,33.52,59.2V31.109H95.606Zm0-31.043H33.52V23.717A10.361,10.361,0,0,1,43.867,13.37H85.259A10.507,10.507,0,0,1,91.7,15.621a10.191,10.191,0,0,1,3.91,8.1Z" transform="translate(-30.563 -4.5)" fill="#b5b5b5"/>
</svg>
