<svg xmlns="http://www.w3.org/2000/svg" width="43.001" height="43.064" viewBox="0 0 43.001 43.064">
  <g id="Groupe_9597" data-name="Groupe 9597" transform="translate(0.498 0.503)">
    <path id="Tracé_1643" data-name="Tracé 1643" d="M33.555,51.029a4.137,4.137,0,0,0-3-1.376,4.278,4.278,0,0,0-3.036,1.367l-2.805,2.8c-.231-.124-.462-.24-.684-.355-.32-.16-.621-.311-.879-.47a30.489,30.489,0,0,1-7.306-6.658,17.987,17.987,0,0,1-2.4-3.782c.728-.666,1.4-1.358,2.06-2.024.249-.249.5-.506.746-.755a4.073,4.073,0,0,0,0-6.143L13.83,31.205c-.275-.275-.559-.559-.826-.843-.533-.55-1.092-1.119-1.669-1.651a4.2,4.2,0,0,0-2.974-1.3,4.348,4.348,0,0,0-3.018,1.3l-.018.018L2.307,31.774A6.5,6.5,0,0,0,.381,35.9a15.562,15.562,0,0,0,1.136,6.587A38.223,38.223,0,0,0,8.308,53.816,41.776,41.776,0,0,0,22.219,64.708a21.674,21.674,0,0,0,7.812,2.308c.186.009.382.018.559.018a6.689,6.689,0,0,0,5.122-2.2c.009-.018.027-.027.036-.044A20.183,20.183,0,0,1,37.3,63.182c.382-.364.772-.746,1.154-1.145a4.429,4.429,0,0,0,1.34-3.072,4.266,4.266,0,0,0-1.367-3.045Zm3.178,9.348c-.009,0-.009.009,0,0-.346.373-.7.71-1.083,1.083a23.34,23.34,0,0,0-1.713,1.775A4.28,4.28,0,0,1,30.6,64.646c-.133,0-.275,0-.408-.009a19.254,19.254,0,0,1-6.924-2.077A39.434,39.434,0,0,1,10.164,52.3,36.04,36.04,0,0,1,3.772,41.654,12.675,12.675,0,0,1,2.778,36.1,4.075,4.075,0,0,1,4,33.46L7.03,30.433a2.018,2.018,0,0,1,1.349-.63,1.9,1.9,0,0,1,1.3.621l.027.027c.542.506,1.056,1.03,1.6,1.589.275.284.559.568.843.861l2.424,2.424a1.694,1.694,0,0,1,0,2.752c-.257.257-.506.515-.763.763-.746.763-1.456,1.474-2.228,2.166-.018.018-.036.027-.044.044a1.811,1.811,0,0,0-.462,2.015l.027.08a19.457,19.457,0,0,0,2.867,4.678l.009.009a32.583,32.583,0,0,0,7.883,7.173,12.123,12.123,0,0,0,1.092.595c.32.16.621.311.879.47.036.018.071.044.107.062a1.924,1.924,0,0,0,.879.222,1.9,1.9,0,0,0,1.349-.613L29.2,52.706a2.008,2.008,0,0,1,1.34-.666,1.808,1.808,0,0,1,1.278.648l.018.018L36.725,57.6A1.755,1.755,0,0,1,36.734,60.376Z" transform="translate(-0.344 -24.973)" fill="#1ec501" stroke="#1ec501" stroke-width="1"/>
    <path id="Tracé_1644" data-name="Tracé 1644" d="M245.93,88.3a11.425,11.425,0,0,1,9.3,9.3,1.191,1.191,0,0,0,1.181.994,1.583,1.583,0,0,0,.2-.018A1.2,1.2,0,0,0,257.6,97.2a13.815,13.815,0,0,0-11.256-11.256,1.2,1.2,0,0,0-1.385.976A1.185,1.185,0,0,0,245.93,88.3Z" transform="translate(-223.23 -78.297)" fill="#1ec501" stroke="#1ec501" stroke-width="1"/>
    <path id="Tracé_1645" data-name="Tracé 1645" d="M268.7,18.554A22.748,22.748,0,0,0,250.167.018a1.2,1.2,0,1,0-.391,2.361,20.318,20.318,0,0,1,16.565,16.565,1.191,1.191,0,0,0,1.181.994,1.584,1.584,0,0,0,.2-.018A1.176,1.176,0,0,0,268.7,18.554Z" transform="translate(-226.721 0)" fill="#1ec501" stroke="#1ec501" stroke-width="1"/>
  </g>
</svg>
