<svg id="fi-rr-camera" xmlns="http://www.w3.org/2000/svg" width="46" height="46" viewBox="0 0 46 46">
  <path id="Tracé_976" data-name="Tracé 976" d="M36.417,7.667h-.974L31.257,2.239A5.794,5.794,0,0,0,26.7,0H19.3a5.794,5.794,0,0,0-4.554,2.239L10.557,7.667H9.583A9.6,9.6,0,0,0,0,17.25V36.417A9.6,9.6,0,0,0,9.583,46H36.417A9.6,9.6,0,0,0,46,36.417V17.25a9.6,9.6,0,0,0-9.583-9.583ZM17.779,4.581A1.928,1.928,0,0,1,19.3,3.833H26.7a1.932,1.932,0,0,1,1.518.748L30.6,7.667H15.4ZM42.167,36.417a5.75,5.75,0,0,1-5.75,5.75H9.583a5.75,5.75,0,0,1-5.75-5.75V17.25a5.75,5.75,0,0,1,5.75-5.75H36.417a5.75,5.75,0,0,1,5.75,5.75Z" transform="translate(0 0)" fill="#1ec501"/>
  <path id="Tracé_977" data-name="Tracé 977" d="M17.5,8A11.5,11.5,0,1,0,29,19.5,11.5,11.5,0,0,0,17.5,8Zm0,19.167A7.667,7.667,0,1,1,25.167,19.5,7.667,7.667,0,0,1,17.5,27.167Z" transform="translate(5.5 7.333)" fill="#1ec501"/>
</svg>
