<svg xmlns="http://www.w3.org/2000/svg" width="23.039" height="19.204" viewBox="0 0 23.039 19.204">
  <g id="Change_Picture" data-name="Change Picture" transform="translate(0)">
    <path id="Tracé_807" data-name="Tracé 807" d="M244.642,169.023a3.835,3.835,0,1,0,3.835,3.835A3.837,3.837,0,0,0,244.642,169.023Z" transform="translate(-233.122 -162.295)" fill="#0060a2" fill-rule="evenodd"/>
    <path id="Tracé_808" data-name="Tracé 808" d="M256.735,169.1H255.7l-.248-.193-.5-2a2.177,2.177,0,0,0-2.112-1.65h-9.621a2.18,2.18,0,0,0-2.112,1.65l-.5,2-.25.195H239.32a2.813,2.813,0,0,0-2.812,2.811v9.741a2.814,2.814,0,0,0,2.812,2.811h17.415a2.814,2.814,0,0,0,2.812-2.811v-9.741a2.813,2.813,0,0,0-2.812-2.811Zm-8.707,12.485a5.762,5.762,0,1,1,5.76-5.762,5.768,5.768,0,0,1-5.76,5.762Zm7.681-7.683a.96.96,0,1,1,.96-.96A.96.96,0,0,1,255.71,173.9Z" transform="translate(-236.508 -165.261)" fill="#0060a2" fill-rule="evenodd"/>
  </g>
</svg>
