<svg id="fi-rr-clock" xmlns="http://www.w3.org/2000/svg" width="16" height="16" viewBox="0 0 16 16">
  <path id="Tracé_1004" data-name="Tracé 1004" d="M8,0a8,8,0,1,0,8,8A8,8,0,0,0,8,0ZM8,14.667A6.667,6.667,0,1,1,14.667,8,6.667,6.667,0,0,1,8,14.667Z" transform="translate(0 0)" fill="#2699fb"/>
  <path id="Tracé_1005" data-name="Tracé 1005" d="M11.032,6a.8.8,0,0,0-.8.8v3.46l-2.7,1.69a.8.8,0,1,0,.85,1.36l3.072-1.92a.8.8,0,0,0,.375-.686V6.8A.8.8,0,0,0,11.032,6Z" transform="translate(-2.693 -2.505)" fill="#2699fb"/>
</svg>
