<svg xmlns="http://www.w3.org/2000/svg" width="142" height="72" viewBox="0 0 142 72">
  <path id="Combined_Shape" data-name="Combined Shape" d="M139.429,72a2.5,2.5,0,0,1-2.5-2.5v-31a2.5,2.5,0,0,1,2.5-2.5h.071a2.5,2.5,0,0,1,2.5,2.5v31a2.5,2.5,0,0,1-2.5,2.5Zm-15.215-1.029a2.5,2.5,0,0,1-2.5-2.5V10.729a2.5,2.5,0,0,1,2.5-2.5h.072a2.5,2.5,0,0,1,2.5,2.5V68.472a2.5,2.5,0,0,1-2.5,2.5Zm-15.215,0a2.5,2.5,0,0,1-2.5-2.5V26.158a2.5,2.5,0,0,1,2.5-2.5h.072a2.5,2.5,0,0,1,2.5,2.5V68.472a2.5,2.5,0,0,1-2.5,2.5Zm-15.214,0a2.5,2.5,0,0,1-2.5-2.5V6.614a2.5,2.5,0,0,1,2.5-2.5h.071a2.5,2.5,0,0,1,2.5,2.5V68.472a2.5,2.5,0,0,1-2.5,2.5Zm-15.215,0a2.5,2.5,0,0,1-2.5-2.5v-52.6a2.5,2.5,0,0,1,2.5-2.5h.071a2.5,2.5,0,0,1,2.5,2.5v52.6a2.5,2.5,0,0,1-2.5,2.5Zm-15.215,0a2.5,2.5,0,0,1-2.5-2.5V2.5a2.5,2.5,0,0,1,2.5-2.5h.071a2.5,2.5,0,0,1,2.5,2.5V68.472a2.5,2.5,0,0,1-2.5,2.5Zm-15.215,0a2.5,2.5,0,0,1-2.5-2.5V42.614a2.5,2.5,0,0,1,2.5-2.5h.072a2.5,2.5,0,0,1,2.5,2.5V68.472a2.5,2.5,0,0,1-2.5,2.5Zm-15.215,0a2.5,2.5,0,0,1-2.5-2.5v-52.6a2.5,2.5,0,0,1,2.5-2.5H33a2.5,2.5,0,0,1,2.5,2.5v52.6a2.5,2.5,0,0,1-2.5,2.5Zm-15.214,0a2.5,2.5,0,0,1-2.5-2.5V34.385a2.5,2.5,0,0,1,2.5-2.5h.071a2.5,2.5,0,0,1,2.5,2.5V68.472a2.5,2.5,0,0,1-2.5,2.5Zm-15.215,0a2.5,2.5,0,0,1-2.5-2.5v-52.6a2.5,2.5,0,0,1,2.5-2.5h.071a2.5,2.5,0,0,1,2.5,2.5v52.6a2.5,2.5,0,0,1-2.5,2.5Z" fill="#1ec501"/>
</svg>
