<svg xmlns="http://www.w3.org/2000/svg" width="38" height="38" viewBox="0 0 38 38">
  <g id="Groupe_9652" data-name="Groupe 9652" transform="translate(-17 -496)">
    <circle id="Ellipse_599" data-name="Ellipse 599" cx="19" cy="19" r="19" transform="translate(17 496)" fill="#f3f3f3"/>
    <path id="fi-rr-tool-crop" d="M17.25,13.5H15V6.75A3.754,3.754,0,0,0,11.25,3H4.5V.75A.75.75,0,0,0,3,.75V3H.75a.75.75,0,0,0,0,1.5H3v6.75A3.755,3.755,0,0,0,6.75,15H13.5v2.25a.75.75,0,0,0,1.5,0V15h2.25a.75.75,0,0,0,0-1.5Zm-10.5,0A2.25,2.25,0,0,1,4.5,11.25V4.5h6.75A2.25,2.25,0,0,1,13.5,6.75V13.5Z" transform="translate(27 506)" fill="#474747"/>
  </g>
</svg>
