<svg id="cutlery" xmlns="http://www.w3.org/2000/svg" width="20.543" height="28" viewBox="0 0 20.543 28">
  <path id="Tracé_953" data-name="Tracé 953" d="M333.215,1.21a.41.41,0,0,0-.387-.035A7.374,7.374,0,0,0,330,3.883a15.615,15.615,0,0,0-1.95,4.326,28.926,28.926,0,0,0-1.038,7.17,1.653,1.653,0,0,0,1.154,1.629v9.455a2.616,2.616,0,0,0,5.233,0V1.552a.41.41,0,0,0-.184-.342ZM327.832,15.4c.1-3.232.667-7.763,2.8-11a8.243,8.243,0,0,1,1.943-2.122V16.264c-3.185,0-3.787,0-3.92,0A.832.832,0,0,1,327.832,15.4Zm4.747,11.058a1.8,1.8,0,0,1-3.592,0V17.084h3.592Z" transform="translate(-312.856 -1.079)" fill="#2a2a43"/>
  <circle id="Ellipse_237" data-name="Ellipse 237" cx="0.541" cy="0.541" r="0.541" transform="translate(17.386 23.171)" fill="#2a2a43"/>
  <path id="Tracé_954" data-name="Tracé 954" d="M386.633,347.26a.541.541,0,1,0-.541-.541A.541.541,0,0,0,386.633,347.26Z" transform="translate(-368.706 -327.247)" fill="#2a2a43"/>
  <path id="Tracé_955" data-name="Tracé 955" d="M150.364,423.706a.541.541,0,1,0,.541.541A.541.541,0,0,0,150.364,423.706Z" transform="translate(-145.358 -400.535)" fill="#2a2a43"/>
  <path id="Tracé_956" data-name="Tracé 956" d="M150.364,346.179a.541.541,0,1,0,.541.541A.541.541,0,0,0,150.364,346.179Z" transform="translate(-145.358 -327.247)" fill="#2a2a43"/>
  <path id="Tracé_957" data-name="Tracé 957" d="M76.846,0a1.39,1.39,0,0,0-1.4,1.395v3.8a.465.465,0,0,1-.425.471.447.447,0,0,1-.47-.447V1.395a1.391,1.391,0,0,0-1.4-1.4,1.377,1.377,0,0,0-1.344,1.37V5.192a.465.465,0,0,1-.425.471.447.447,0,0,1-.47-.447V1.395a1.391,1.391,0,0,0-1.4-1.4,1.377,1.377,0,0,0-1.344,1.37v4.7a4.483,4.483,0,0,0,2.815,4.174.645.645,0,0,1,.412.6v4.41a1.25,1.25,0,0,0-.837,1.178v8.952a2.616,2.616,0,0,0,5.233,0V16.432a1.25,1.25,0,0,0-.837-1.178v-4.41a.645.645,0,0,1,.412-.6A4.483,4.483,0,0,0,78.19,6.074V1.37A1.377,1.377,0,0,0,76.846,0ZM74.981,25.383a1.8,1.8,0,0,1-3.592,0V16.432A.428.428,0,0,1,71.816,16h2.738a.428.428,0,0,1,.427.427v8.952ZM77.37,6.074a3.666,3.666,0,0,1-2.3,3.413,1.462,1.462,0,0,0-.925,1.356v4.341H72.226V10.843A1.462,1.462,0,0,0,71.3,9.487,3.666,3.666,0,0,1,69,6.074V1.37a.552.552,0,0,1,.539-.55.571.571,0,0,1,.56.575V5.216a1.268,1.268,0,1,0,2.536-.024V1.37a.552.552,0,0,1,.539-.55.571.571,0,0,1,.56.575V5.216a1.268,1.268,0,1,0,2.536-.024v-3.8a.57.57,0,0,1,.56-.574.552.552,0,0,1,.539.55v4.7Z" transform="translate(-68.179 0)" fill="#2a2a43"/>
</svg>
