<svg xmlns="http://www.w3.org/2000/svg" width="46" height="46" viewBox="0 0 46 46">
  <g id="Groupe_9746" data-name="Groupe 9746" transform="translate(-191 -353)">
    <g id="Groupe_19" data-name="Groupe 19" transform="translate(26 153)">
      <g id="Groupe_18" data-name="Groupe 18" transform="translate(86 3)">
        <circle id="Ellipse_157" data-name="Ellipse 157" cx="23" cy="23" r="23" transform="translate(79 197)" fill="#1ec501"/>
      </g>
    </g>
    <path id="fi-rr-marker-time" d="M12,24a5.419,5.419,0,0,1-3.808-1.552L4.25,18.805A11,11,0,1,1,19.778,3.221h0a11,11,0,0,1,0,15.556l-3.991,3.689A5.39,5.39,0,0,1,12,24ZM12,2A9,9,0,0,0,5.636,17.364L9.57,21a3.516,3.516,0,0,0,4.838.019l3.984-3.682a9,9,0,0,0-.029-12.7h0A8.94,8.94,0,0,0,12,2Zm0,16a7,7,0,1,1,7-7,7,7,0,0,1-7,7ZM12,6a5,5,0,1,0,5,5,5,5,0,0,0-5-5Zm1.707,6.707a1,1,0,0,0,0-1.414L13,10.586V9a1,1,0,0,0-2,0v2a1,1,0,0,0,.293.707l1,1a1,1,0,0,0,1.414,0Z" transform="translate(201.986 363.986)" fill="#fff"/>
  </g>
</svg>
