<svg xmlns="http://www.w3.org/2000/svg" width="66.056" height="69.763" viewBox="0 0 66.056 69.763">
  <g id="Groupe_9623" data-name="Groupe 9623" transform="translate(-13.601)">
    <path id="Tracé_1646" data-name="Tracé 1646" d="M78.295,193.709H75.306V150.317a3.667,3.667,0,0,0-3.663-3.663h-6.68a3.667,3.667,0,0,0-3.663,3.663v43.392H53.712V169.977a3.667,3.667,0,0,0-3.663-3.663H43.37a3.667,3.667,0,0,0-3.663,3.663v23.732H32.119V181.418a3.667,3.667,0,0,0-3.663-3.663h-6.68a3.667,3.667,0,0,0-3.663,3.663v12.291h-3.15a1.363,1.363,0,1,0,0,2.725H78.295a1.363,1.363,0,1,0,0-2.725Zm-57.456,0V181.418a.939.939,0,0,1,.938-.938h6.68a.939.939,0,0,1,.938.938v12.291Zm21.594,0V169.977a.939.939,0,0,1,.938-.938h6.68a.939.939,0,0,1,.938.938v23.732Zm21.594,0V150.317a.939.939,0,0,1,.938-.938h6.68a.939.939,0,0,1,.938.938v43.392Z" transform="translate(0 -126.672)" fill="#fff"/>
    <path id="Tracé_1647" data-name="Tracé 1647" d="M100.709,37.936a1.358,1.358,0,0,0,.963-.4L125.2,14.006l5.08,5.08a1.363,1.363,0,0,0,1.927,0L146.643,4.652V9.259a1.363,1.363,0,0,0,2.725,0V1.5c0-.022,0-.044,0-.066A1.358,1.358,0,0,0,147.935,0c-.022,0-.044,0-.066,0h-8.243a1.363,1.363,0,0,0,0,2.725h5.09L131.246,16.2l-5.08-5.08a1.363,1.363,0,0,0-1.927,0L99.745,35.61a1.362,1.362,0,0,0,.963,2.326Z" transform="translate(-74.062)" fill="#fff"/>
    <circle id="Ellipse_595" data-name="Ellipse 595" cx="1.363" cy="1.363" r="1.363" transform="translate(20.692 39.965)" fill="#fff"/>
  </g>
</svg>
