<svg xmlns="http://www.w3.org/2000/svg" xmlns:xlink="http://www.w3.org/1999/xlink" width="41" height="41" viewBox="0 0 41 41">
  <defs>
    <clipPath id="clip-path">
      <path id="Mask" d="M6.834,41A6.841,6.841,0,0,1,0,34.166V6.834A6.841,6.841,0,0,1,6.834,0H34.166A6.841,6.841,0,0,1,41,6.834V34.166A6.841,6.841,0,0,1,34.166,41ZM4.556,34.166a2.279,2.279,0,0,0,2.278,2.278H34.166a2.279,2.279,0,0,0,2.278-2.278V23.721L29.763,17.04,19.972,28.791a2.281,2.281,0,0,1-3.013.438l-5.279-3.52L4.556,32.833Zm0-27.333V26.389l5.222-5.221a2.273,2.273,0,0,1,2.873-.285L17.783,24.3,27.861,12.209a2.278,2.278,0,0,1,3.36-.153l5.222,5.224V6.834a2.279,2.279,0,0,0-2.278-2.278H6.834A2.279,2.279,0,0,0,4.556,6.834Zm6.834,5.695a3.416,3.416,0,1,1,3.417,3.414A3.416,3.416,0,0,1,11.39,12.529Z" fill="#d6d6d6"/>
    </clipPath>
  </defs>
  <g id="Groupe_3268" data-name="Groupe 3268" transform="translate(-48 -1091)">
    <g id="_22_Icons_Line_Camera" data-name="22) Icons/Line/Camera" transform="translate(43 1086)">
      <g id="Groupe_7" data-name="Groupe 7" transform="translate(5 5)">
        <path id="Mask-2" data-name="Mask" d="M6.834,41A6.841,6.841,0,0,1,0,34.166V6.834A6.841,6.841,0,0,1,6.834,0H34.166A6.841,6.841,0,0,1,41,6.834V34.166A6.841,6.841,0,0,1,34.166,41ZM4.556,34.166a2.279,2.279,0,0,0,2.278,2.278H34.166a2.279,2.279,0,0,0,2.278-2.278V23.721L29.763,17.04,19.972,28.791a2.281,2.281,0,0,1-3.013.438l-5.279-3.52L4.556,32.833Zm0-27.333V26.389l5.222-5.221a2.273,2.273,0,0,1,2.873-.285L17.783,24.3,27.861,12.209a2.278,2.278,0,0,1,3.36-.153l5.222,5.224V6.834a2.279,2.279,0,0,0-2.278-2.278H6.834A2.279,2.279,0,0,0,4.556,6.834Zm6.834,5.695a3.416,3.416,0,1,1,3.417,3.414A3.416,3.416,0,0,1,11.39,12.529Z" fill="#d6d6d6"/>
      </g>
    </g>
  </g>
</svg>
