<svg xmlns="http://www.w3.org/2000/svg" width="30" height="30" viewBox="0 0 30 30">
  <g id="Groupe_9591" data-name="Groupe 9591" transform="translate(-23 -580)">
    <circle id="Ellipse_557" data-name="Ellipse 557" cx="15" cy="15" r="15" transform="translate(23 580)" fill="#1ec501"/>
    <path id="fi-rr-plus" d="M14.375,6.875H8.125V.625A.625.625,0,0,0,7.5,0h0a.625.625,0,0,0-.625.625v6.25H.625A.625.625,0,0,0,0,7.5H0a.625.625,0,0,0,.625.625h6.25v6.25A.625.625,0,0,0,7.5,15h0a.625.625,0,0,0,.625-.625V8.125h6.25A.625.625,0,0,0,15,7.5h0A.625.625,0,0,0,14.375,6.875Z" transform="translate(31 588)" fill="#fff"/>
  </g>
</svg>
