<svg xmlns="http://www.w3.org/2000/svg" width="46" height="46" viewBox="0 0 46 46">
  <g id="Groupe_656" data-name="Groupe 656" transform="translate(-165 -200)">
    <g id="Groupe_19" data-name="Groupe 19">
      <g id="Groupe_18" data-name="Groupe 18" transform="translate(86 3)">
        <circle id="Ellipse_157" data-name="Ellipse 157" cx="23" cy="23" r="23" transform="translate(79 197)" fill="#1ec501"/>
      </g>
    </g>
    <g id="fi-rr-trash" transform="translate(176 211)">
      <path id="Tracé_1616" data-name="Tracé 1616" d="M21,4H17.9A5.009,5.009,0,0,0,13,0H11A5.009,5.009,0,0,0,6.1,4H3A1,1,0,0,0,3,6H4V19a5.006,5.006,0,0,0,5,5h6a5.006,5.006,0,0,0,5-5V6h1a1,1,0,0,0,0-2ZM11,2h2a3.006,3.006,0,0,1,2.829,2H8.171A3.006,3.006,0,0,1,11,2Zm7,17a3,3,0,0,1-3,3H9a3,3,0,0,1-3-3V6H18Z" fill="#fff"/>
      <path id="Tracé_1617" data-name="Tracé 1617" d="M10,18a1,1,0,0,0,1-1V11a1,1,0,0,0-2,0v6A1,1,0,0,0,10,18Z" fill="#fff"/>
      <path id="Tracé_1618" data-name="Tracé 1618" d="M14,18a1,1,0,0,0,1-1V11a1,1,0,0,0-2,0v6A1,1,0,0,0,14,18Z" fill="#fff"/>
    </g>
  </g>
</svg>
