<svg id="Groupe_3524" data-name="Groupe 3524" xmlns="http://www.w3.org/2000/svg" width="279" height="143.603" viewBox="0 0 279 143.603">
  <text id="Votre_annonce_n_est_pas_de_suite_actif_et_elle_est_en_cours_d_approbation_" data-name="Votre annonce n&apos;est pas de suite actif et elle est en cours d&apos;approbation …" transform="translate(0 53.603)" fill="#1ec501" font-size="16" font-family="Muli-ExtraBold, Muli" font-weight="800"><tspan x="13.548" y="16">Votre annonce n&apos;est pas de suite </tspan><tspan x="48.124" y="36">actif et elle est en cours </tspan><tspan x="75.516" y="56">d&apos;approbation …</tspan></text>
  <path id="fi-rr-thumbs-up" d="M42.7,14.1a9.363,9.363,0,0,0-7.074-3.227H28.144l.63-3.827A5.694,5.694,0,0,0,18.048,3.606l-3.589,7.271H9.374A9.386,9.386,0,0,0,0,20.251v9.374A9.386,9.386,0,0,0,9.374,39H34.311a9.419,9.419,0,0,0,9.283-8.062l1.322-9.374A9.374,9.374,0,0,0,42.7,14.1ZM3.75,29.626V20.251a5.625,5.625,0,0,1,5.625-5.625h3.75V35.25H9.374A5.625,5.625,0,0,1,3.75,29.626Zm37.444-8.589L39.87,30.411a5.647,5.647,0,0,1-5.559,4.839H16.874V14.128a1.875,1.875,0,0,0,.431-.547l4.1-8.315a2.006,2.006,0,0,1,3.229-.388,1.92,1.92,0,0,1,.437,1.575l-.99,6a1.875,1.875,0,0,0,1.851,2.175h9.688a5.625,5.625,0,0,1,5.57,6.41Z" transform="translate(117 -0.426)" fill="#1ec501"/>
</svg>
