<svg xmlns="http://www.w3.org/2000/svg" width="49.015" height="49" viewBox="0 0 49.015 49">
  <g id="chandelier" transform="translate(0.51 0.498)">
    <g id="Groupe_9596" data-name="Groupe 9596" transform="translate(-0.002 0.002)">
      <path id="Tracé_1642" data-name="Tracé 1642" d="M47.952,40.052,44.68,29.143a1.09,1.09,0,0,0-1.045-.778H37.089a1.091,1.091,0,0,0-1.045.778L32.771,40.052a1.09,1.09,0,0,0,1.045,1.4h5.454V43.2a2.619,2.619,0,0,1-3.514,2.461l-9.231-3.356a2.192,2.192,0,0,1-1.436-2.052V6.547a5.46,5.46,0,0,0,5.454-5.454A1.09,1.09,0,0,0,29.453,0H18.544a1.09,1.09,0,0,0-1.091,1.091,5.46,5.46,0,0,0,5.454,5.454V40.255a2.192,2.192,0,0,1-1.436,2.052l-9.233,3.356a2.589,2.589,0,0,1-.894.158A2.621,2.621,0,0,1,8.725,43.2V41.456H14.18a1.09,1.09,0,0,0,1.045-1.4L11.952,29.143a1.09,1.09,0,0,0-1.045-.778H4.362a1.091,1.091,0,0,0-1.045.778L.044,40.052a1.09,1.09,0,0,0,1.045,1.4H6.544V43.2a4.806,4.806,0,0,0,4.8,4.8,4.757,4.757,0,0,0,1.642-.29l9.231-3.356A4.3,4.3,0,0,0,24,43.071a4.3,4.3,0,0,0,1.781,1.285l9.229,3.356A4.8,4.8,0,0,0,41.453,43.2V41.456h5.454a1.09,1.09,0,0,0,1.045-1.4Zm-45.4-.778,2.619-8.727H10.1l2.619,8.727ZM22.907,4.366a3.28,3.28,0,0,1-3.086-2.182h8.354a3.279,3.279,0,0,1-3.086,2.182ZM35.282,39.275,37.9,30.547h4.922l2.619,8.727Z" transform="translate(0.002 -0.002)" fill="#1ec501" stroke="#1ec501" stroke-width="1"/>
    </g>
  </g>
</svg>
