<svg xmlns="http://www.w3.org/2000/svg" width="64.032" height="57.81" viewBox="0 0 64.032 57.81">
  <path id="Intersection_4" data-name="Intersection 4" d="M297.845,102.159a8.733,8.733,0,0,0,.366-2.509V58.9a8.732,8.732,0,0,0-8.732-8.732H254.553a8.731,8.731,0,0,0-8.732,8.732V99.65a8.735,8.735,0,0,0,.366,2.509h-5.969A14.664,14.664,0,0,1,240,99.65V58.9a14.57,14.57,0,0,1,14.553-14.553H289.48A14.571,14.571,0,0,1,304.033,58.9V99.65a14.678,14.678,0,0,1-.2,2.376,15.127,15.127,0,0,1-2.006.133ZM277.837,99.65a2.911,2.911,0,1,1,0-5.821H289.48a2.911,2.911,0,0,1,0,5.821Zm-14.553-2.911a2.911,2.911,0,1,1,2.911,2.911A2.911,2.911,0,0,1,263.284,96.739Zm-11.642,0a2.91,2.91,0,1,1,2.911,2.911A2.91,2.91,0,0,1,251.643,96.739ZM286.569,85.1a2.911,2.911,0,1,1,2.911,2.911A2.911,2.911,0,0,1,286.569,85.1Zm-11.642,0a2.911,2.911,0,1,1,2.911,2.911A2.911,2.911,0,0,1,274.927,85.1Zm-11.642,0a2.911,2.911,0,1,1,2.911,2.911A2.911,2.911,0,0,1,263.284,85.1Zm-11.642,0a2.91,2.91,0,1,1,2.911,2.911A2.91,2.91,0,0,1,251.643,85.1Zm8.731-11.642a8.731,8.731,0,0,1,0-17.463h23.285a8.731,8.731,0,1,1,0,17.463Zm-2.911-8.731a2.91,2.91,0,0,0,2.911,2.91h23.285a2.91,2.91,0,1,0,0-5.82H260.374A2.91,2.91,0,0,0,257.463,64.724Z" transform="translate(-240 -44.349)" fill="#e36a00"/>
</svg>
