<svg xmlns="http://www.w3.org/2000/svg" width="20" height="24" viewBox="0 0 20 24">
  <g id="fi-rr-label" transform="translate(-2 0)">
    <path id="Tracé_1008" data-name="Tracé 1008" d="M20.457,4.555,12.486.126a1,1,0,0,0-.972,0L3.543,4.555A3,3,0,0,0,2,7.177V19a5.006,5.006,0,0,0,5,5H17a5.006,5.006,0,0,0,5-5V7.177a3,3,0,0,0-1.543-2.622ZM20,19a3,3,0,0,1-3,3H7a3,3,0,0,1-3-3V7.177A1,1,0,0,1,4.515,6.3L12,2.144,19.486,6.3A1,1,0,0,1,20,7.177Z" fill="#7e7e7e"/>
    <circle id="Ellipse_251" data-name="Ellipse 251" cx="1.5" cy="1.5" r="1.5" transform="translate(10.5 5.5)" fill="#7e7e7e"/>
  </g>
</svg>
