<svg xmlns="http://www.w3.org/2000/svg" width="248.534" height="238" viewBox="0 0 248.534 238">
  <g id="Groupe_9973" data-name="Groupe 9973" transform="translate(-1065.761 408)">
    <path id="Shape" d="M44.194,45.662a1.454,1.454,0,1,1,1.454-1.454A1.456,1.456,0,0,1,44.194,45.662Zm-8.548,0A1.454,1.454,0,1,1,37.1,44.207,1.456,1.456,0,0,1,35.645,45.662Zm-8.547,0a1.454,1.454,0,1,1,1.454-1.454A1.456,1.456,0,0,1,27.1,45.662Zm-8.548,0A1.454,1.454,0,1,1,20,44.207,1.456,1.456,0,0,1,18.55,45.662Zm-8.548,0a1.454,1.454,0,1,1,1.454-1.454A1.456,1.456,0,0,1,10,45.662Zm-8.547,0a1.454,1.454,0,1,1,1.454-1.454A1.456,1.456,0,0,1,1.454,45.662Zm42.739-8.55a1.455,1.455,0,1,1,1.454-1.455A1.456,1.456,0,0,1,44.194,37.111Zm-8.548,0A1.455,1.455,0,1,1,37.1,35.656,1.456,1.456,0,0,1,35.645,37.111Zm-8.547,0a1.455,1.455,0,1,1,1.454-1.455A1.456,1.456,0,0,1,27.1,37.111Zm-8.548,0A1.455,1.455,0,1,1,20,35.656,1.456,1.456,0,0,1,18.55,37.111Zm-8.548,0a1.455,1.455,0,1,1,1.454-1.455A1.456,1.456,0,0,1,10,37.111Zm-8.547,0a1.455,1.455,0,1,1,1.454-1.455A1.456,1.456,0,0,1,1.454,37.111Zm42.739-8.551a1.454,1.454,0,1,1,1.454-1.454A1.456,1.456,0,0,1,44.194,28.561Zm-8.548,0A1.454,1.454,0,1,1,37.1,27.106,1.456,1.456,0,0,1,35.645,28.561Zm-8.547,0a1.454,1.454,0,1,1,1.454-1.454A1.456,1.456,0,0,1,27.1,28.561Zm-8.548,0A1.454,1.454,0,1,1,20,27.106,1.456,1.456,0,0,1,18.55,28.561Zm-8.548,0a1.454,1.454,0,1,1,1.454-1.454A1.456,1.456,0,0,1,10,28.561Zm-8.547,0a1.454,1.454,0,1,1,1.454-1.454A1.456,1.456,0,0,1,1.454,28.561Zm42.739-8.55a1.455,1.455,0,1,1,1.454-1.455A1.456,1.456,0,0,1,44.194,20.011Zm-8.548,0A1.455,1.455,0,1,1,37.1,18.555,1.456,1.456,0,0,1,35.645,20.011Zm-8.547,0a1.455,1.455,0,1,1,1.454-1.455A1.456,1.456,0,0,1,27.1,20.011Zm-8.548,0A1.455,1.455,0,1,1,20,18.555,1.456,1.456,0,0,1,18.55,20.011Zm-8.548,0a1.455,1.455,0,1,1,1.454-1.455A1.456,1.456,0,0,1,10,20.011Zm-8.547,0a1.455,1.455,0,1,1,1.454-1.455A1.456,1.456,0,0,1,1.454,20.011ZM44.194,11.46a1.454,1.454,0,1,1,1.454-1.454A1.456,1.456,0,0,1,44.194,11.46Zm-8.548,0A1.454,1.454,0,1,1,37.1,10.005,1.456,1.456,0,0,1,35.645,11.46Zm-8.547,0a1.454,1.454,0,1,1,1.454-1.454A1.456,1.456,0,0,1,27.1,11.46Zm-8.548,0A1.454,1.454,0,1,1,20,10.005,1.456,1.456,0,0,1,18.55,11.46ZM10,11.46a1.454,1.454,0,1,1,1.454-1.454A1.456,1.456,0,0,1,10,11.46Zm-8.547,0a1.454,1.454,0,1,1,1.454-1.454A1.456,1.456,0,0,1,1.454,11.46ZM44.194,2.91a1.455,1.455,0,1,1,1.454-1.455A1.456,1.456,0,0,1,44.194,2.91Zm-8.548,0A1.455,1.455,0,1,1,37.1,1.454,1.456,1.456,0,0,1,35.645,2.91Zm-8.547,0a1.455,1.455,0,1,1,1.454-1.455A1.456,1.456,0,0,1,27.1,2.91Zm-8.548,0A1.455,1.455,0,1,1,20,1.454,1.456,1.456,0,0,1,18.55,2.91ZM10,2.91a1.455,1.455,0,1,1,1.454-1.455A1.456,1.456,0,0,1,10,2.91Zm-8.547,0A1.455,1.455,0,1,1,2.908,1.454,1.456,1.456,0,0,1,1.454,2.91Z" transform="translate(1247.739 -305.404)" fill="#cdcbdf"/>
    <g id="Background" transform="translate(1068.531 -259.743)">
      <path id="Tracé_1" data-name="Tracé 1" d="M387.427,599.892H145s11.3-29.312,52.821-27.479c0,0,4.885-43.356,46.1-38.776,0,0,34.255-52.277,84.452-.339,0,0,37.067,3.7,31.571,37.282C359.948,570.581,388.038,574.245,387.427,599.892Z" transform="translate(-145 -510.302)" fill="#dff1f7"/>
    </g>
    <g id="Map" transform="translate(1087.615 -408)">
      <g id="Groupe_1" data-name="Groupe 1" transform="translate(11.251)">
        <path id="Tracé_2" data-name="Tracé 2" d="M306.03,362.638v11.419L189.687,291.9h15.419Z" transform="translate(-189.687 -291.904)" fill="#5eb8b5"/>
      </g>
      <g id="Groupe_2" data-name="Groupe 2" transform="translate(10.351)">
        <rect id="Rectangle_1" data-name="Rectangle 1" width="117.244" height="193.27" fill="#5faee5"/>
      </g>
      <g id="Groupe_3" data-name="Groupe 3" transform="translate(10.351 0)">
        <path id="Tracé_3" data-name="Tracé 3" d="M305.6,358.617v-9.465H281.025V291.9h-7.633v57.248H262.651l-14.3-10.018V291.9h-7.633v41.881l-52.363-36.7v10.851l18.472,13.044V414.8H188.36v9.465h18.472v40.3H188.36v9.465h18.472v11.145h7.633V474.029h26.258v11.145h7.633V474.029h25.037v11.145h7.633V474.029H305.6v-9.465H281.025V446.55H305.6v-9.465H281.025V424.262H305.6V414.8H281.025V388.539h21.48l3.1.052v-9.517h-.259l-24.319-17.043v-3.414ZM240.723,464.564H214.465V446.55h26.258Zm0-27.479H214.465V424.262h26.258Zm0-22.288H214.465V388.539h26.258Zm0-35.723H214.465V358.617h26.258Zm0-29.922H214.465V326.369l26.258,18.542Zm32.67,115.413H248.356V446.55h25.037Zm0-27.479H248.356V424.262h25.037Zm0-22.288H248.356V388.539h25.037Zm0-35.723H248.356V358.617h11.777l13.26,9.365Zm15.709,0h-8.076v-5.7Z" transform="translate(-188.36 -291.904)" fill="#56a3d8"/>
      </g>
      <g id="Groupe_4" data-name="Groupe 4" transform="translate(75.843 125.946)">
        <ellipse id="Ellipse_1" data-name="Ellipse 1" cx="7.786" cy="1.221" rx="7.786" ry="1.221" fill="#52a09f"/>
      </g>
      <g id="Groupe_8" data-name="Groupe 8" transform="translate(0 19.887)">
        <g id="Groupe_5" data-name="Groupe 5" transform="translate(137.968 0.066)">
          <path id="Tracé_4" data-name="Tracé 4" d="M378.178,322.258s-.638-.022-1.824-.046l.019-.916c1.2.024,1.836.046,1.836.046Z" transform="translate(-376.354 -321.296)" fill="#112f4b"/>
        </g>
        <g id="Groupe_6" data-name="Groupe 6">
          <path id="Tracé_5" data-name="Tracé 5" d="M179.285,382.029a30.82,30.82,0,0,1-2.252-3.017l.767-.5a29.87,29.87,0,0,0,2.185,2.929Zm-4.089-6.313a23.238,23.238,0,0,1-1.315-3.548l.882-.246a22.343,22.343,0,0,0,1.263,3.407Zm-2-7.275c-.054-.593-.081-1.19-.081-1.778a18.506,18.506,0,0,1,.11-2.02l.91.1a17.538,17.538,0,0,0-.1,1.92c0,.56.026,1.13.077,1.7Zm1.764-7.207-.868-.295a27.811,27.811,0,0,1,1.451-3.47l.819.409A26.913,26.913,0,0,0,174.958,361.233Zm3.237-6.5-.761-.51a33.276,33.276,0,0,1,2.262-2.989l.7.592A32.57,32.57,0,0,0,178.194,354.73Zm4.7-5.572-.637-.659c.871-.842,1.814-1.678,2.8-2.484l.578.711C184.672,347.515,183.749,348.333,182.9,349.158Zm5.677-4.646-.526-.75c.99-.694,2.043-1.382,3.129-2.047l.478.781C190.585,343.151,189.549,343.829,188.574,344.512Zm6.279-3.852-.435-.806c1.063-.575,2.182-1.146,3.327-1.7l.4.826C197.01,339.528,195.9,340.092,194.852,340.66Zm6.651-3.212-.364-.841c1.109-.48,2.27-.957,3.451-1.419l.333.853C203.754,336.5,202.6,336.972,201.5,337.448Zm6.888-2.7-.306-.863c1.151-.409,2.339-.811,3.531-1.2l.282.871C210.715,333.942,209.535,334.342,208.392,334.748Zm7.045-2.284-.26-.878c1.159-.343,2.366-.685,3.586-1.016l.24.884C217.789,331.782,216.59,332.122,215.437,332.464Zm7.153-1.943-.221-.889c1.182-.295,2.4-.586,3.623-.866l.2.893C224.979,329.937,223.766,330.227,222.59,330.52Zm7.228-1.657-.189-.9c1.2-.253,2.428-.5,3.651-.737l.174.9C232.236,328.364,231.013,328.611,229.818,328.863Zm7.283-1.413-.161-.9c1.2-.214,2.436-.425,3.677-.629l.148.9C239.528,327.026,238.3,327.237,237.1,327.45Zm7.331-1.2-.136-.906c1.2-.181,2.438-.358,3.678-.53l.125.908C246.864,325.89,245.63,326.067,244.432,326.247Zm7.347-1.014-.115-.909q1.853-.234,3.7-.445l.1.91Q253.629,325,251.779,325.233Zm7.376-.85-.1-.911q1.863-.195,3.7-.368l.086.912Q261.015,324.189,259.155,324.383Zm7.393-.7-.077-.913q1.873-.159,3.71-.3l.069.914Q268.418,323.526,266.548,323.685Zm7.406-.561-.061-.914q1.884-.126,3.715-.233l.054.914Q275.835,323,273.954,323.124Zm7.417-.433-.046-.915q1.9-.095,3.719-.171l.038.916Q283.266,322.6,281.371,322.69Zm7.424-.311-.031-.916q1.918-.065,3.723-.111l.024.916Q290.712,322.314,288.8,322.38Zm7.432-.193-.016-.916c1.3-.024,2.548-.04,3.725-.052l.009.916Q298.182,322.152,296.227,322.187Zm11.147-.058c-.976-.008-2.07-.014-3.269-.014h-.439V321.2h.441c1.2,0,2.3.005,3.277.014Z" transform="translate(-173.112 -321.199)" fill="#112f4b"/>
        </g>
        <g id="Groupe_7" data-name="Groupe 7" transform="translate(8.687 62.858)">
          <path id="Tracé_6" data-name="Tracé 6" d="M187.269,415.711c-.466-.412-.923-.836-1.36-1.259l.637-.658c.428.413.875.828,1.331,1.231Z" transform="translate(-185.909 -413.795)" fill="#112f4b"/>
        </g>
      </g>
      <g id="Groupe_9" data-name="Groupe 9" transform="translate(2.151 122.682)">
        <path id="Tracé_7" data-name="Tracé 7" d="M189.919,564.244c-.99-.766-1.944-1.564-2.836-2.373l.615-.679c.874.794,1.81,1.577,2.781,2.327Zm-5.468-4.979c-.852-.924-1.652-1.881-2.377-2.846l.732-.55a35.974,35.974,0,0,0,2.318,2.774Zm-4.437-5.934a29.083,29.083,0,0,1-1.673-3.321l.843-.358a28.238,28.238,0,0,0,1.62,3.216Zm-2.887-6.842a25.365,25.365,0,0,1-.7-3.661l.91-.1a24.478,24.478,0,0,0,.67,3.529Zm.069-7.355-.915-.03a27.045,27.045,0,0,1,.381-3.7l.9.156A26.267,26.267,0,0,0,177.2,539.135Zm1.2-7.084-.876-.267A34.186,34.186,0,0,1,178.8,528.3l.842.36A32.9,32.9,0,0,0,178.4,532.05Zm2.826-6.645-.8-.439a13.74,13.74,0,0,1,2.243-3.009l.655.639A12.807,12.807,0,0,0,181.227,525.405Zm4.837-5.053-.506-.763a25.375,25.375,0,0,1,3.251-1.807l.388.83A24.567,24.567,0,0,0,186.064,520.353Zm6.482-3.1-.3-.865c1.091-.382,2.279-.749,3.53-1.092l.241.884C194.785,516.52,193.618,516.881,192.547,517.257Zm7.006-1.938-.2-.895c1.132-.248,2.347-.491,3.611-.72l.164.9C201.878,514.832,200.674,515.073,199.552,515.318ZM206.735,514l-.139-.906c1.148-.177,2.338-.346,3.639-.52l.121.908C209.061,513.66,207.877,513.829,206.735,514Zm7.252-.974-.109-.909q1.8-.214,3.648-.414l.1.91Q215.777,512.819,213.987,513.031Zm7.282-.8-.093-.912q1.8-.184,3.649-.367l.09.911Q223.072,512.051,221.269,512.234Zm7.3-.727-.09-.912q1.807-.177,3.647-.361l.092.912Q230.374,511.33,228.564,511.507Zm7.3-.732-.094-.912q1.81-.187,3.643-.388l.1.911Q237.677,510.587,235.863,510.775Zm7.295-.8-.107-.91q1.81-.212,3.635-.443l.115.909Q244.973,509.761,243.157,509.973Zm7.283-.923-.125-.908c1.235-.17,2.454-.346,3.622-.522l.136.906C252.9,508.7,251.68,508.879,250.441,509.05Zm7.261-1.1-.149-.9c1.214-.2,2.429-.411,3.612-.627l.164.9C260.14,507.54,258.92,507.751,257.7,507.952Zm7.24-1.322-.181-.9c1.208-.242,2.412-.5,3.58-.756l.2.894C267.365,506.131,266.155,506.387,264.941,506.631Zm7.177-1.6-.218-.889c1.2-.293,2.385-.6,3.536-.912l.24.884C274.518,504.431,273.322,504.74,272.118,505.035Zm7.09-1.923-.263-.877q1.1-.329,2.184-.675.659-.209,1.3-.42l.287.87q-.643.213-1.305.424Q280.312,502.781,279.208,503.112Zm6.977-2.311-.316-.859c1.178-.433,2.32-.878,3.4-1.322l.35.846C288.529,499.914,287.375,500.364,286.186,500.8Zm6.8-2.825-.392-.828c1.14-.54,2.227-1.1,3.231-1.656l.445.8C295.249,496.859,294.144,497.426,292.985,497.975Zm6.44-3.62-.515-.758a28.268,28.268,0,0,0,2.849-2.2l.608.685A29.28,29.28,0,0,1,299.426,494.355Zm5.507-5-.728-.555a11.906,11.906,0,0,0,1.722-3.059l.859.318A12.812,12.812,0,0,1,304.933,489.358Zm1.557-7.027a9.663,9.663,0,0,0-.769-3.393l.845-.353a10.58,10.58,0,0,1,.84,3.714Zm-2.573-6.433a15.5,15.5,0,0,0-2.471-2.544l.557-.727a16.076,16.076,0,0,1,2.638,2.71Z" transform="translate(-176.281 -472.627)" fill="#112f4b"/>
      </g>
    </g>
    <g id="Woman" transform="translate(1147.275 -357.743)">
      <path id="Shape-2" data-name="Shape" d="M10.638,28.023l9.921-2.367-.886-4.168q3.75-6.587,0-16.446T1.725,4.6L0,12.708A3.314,3.314,0,0,1,2.5,16.07c0,2.5,1.941,3.422,4.264,3.95Q9.086,20.546,10.638,28.023Z" transform="translate(71.904 2.928)" fill="#fe9f9f"/>
      <path id="Shape-3" data-name="Shape" d="M22.768,22.779s-3.395,5.142-6.6,2.433-2.355-4.7-.783-5.3,1.894-3.857,0-4.352-3.06,2.106-3.6,0,.348-4.276-2.11-4.276S1.494,12.207.361,8.436,2.21,0,8.8,0,21.559,3.245,24.027,8.988,22.768,22.779,22.768,22.779Z" transform="translate(72.283 -1.757)" fill="#221e41"/>
      <path id="Shape-4" data-name="Shape" d="M1.306,3.381Q6.12,2.6,5.849,7.387C5.579,12.172.561,16.759,9.511,21.4s6.032,13.476-.185,15.534q18-5.1,15.192-17.362C21.707,7.3,11.612,14.243,11.261,5.645q-.35-8.6-11.261-4.1Z" transform="translate(92.652 3.644)" fill="#221e41"/>
      <g id="Groupe_12" data-name="Groupe 12" transform="translate(80.453 175.452)">
        <path id="Tracé_10" data-name="Tracé 10" d="M379.752,624.4l-.239,6.686h8.357l.239-6.686Z" transform="translate(-379.513 -624.397)" fill="#ffbfab"/>
      </g>
      <g id="Groupe_13" data-name="Groupe 13" transform="translate(78.423 80.244)">
        <path id="Tracé_11" data-name="Tracé 11" d="M409.471,486.588l-16.95,41.068-3.1,52.85H376.523V520.971l2.043-36.825Z" transform="translate(-376.523 -484.145)" fill="#1166bf"/>
      </g>
      <g id="Groupe_14" data-name="Groupe 14" transform="translate(104.329 175.452)">
        <path id="Tracé_12" data-name="Tracé 12" d="M414.686,624.4l1.194,6.686h8.357l-1.194-6.686Z" transform="translate(-414.686 -624.397)" fill="#ffbfab"/>
      </g>
      <g id="Groupe_15" data-name="Groupe 15" transform="translate(30.685 48.057)">
        <path id="Tracé_13" data-name="Tracé 13" d="M343.755,437.036l-13.434,3.359L306.2,436.731v6.412l23.51,7.633,17.709-4.275Z" transform="translate(-306.201 -436.731)" fill="#eb8f8f"/>
      </g>
      <g id="Groupe_16" data-name="Groupe 16" transform="translate(88.213 82.686)">
        <path id="Tracé_14" data-name="Tracé 14" d="M404.793,581.662h12.893l-6.8-54.163,3.223-39.755H392.5l-1.552,37.725Z" transform="translate(-390.944 -487.744)" fill="#4385f5"/>
      </g>
      <g id="Groupe_17" data-name="Groupe 17" transform="translate(87.733 92.578)">
        <path id="Tracé_15" data-name="Tracé 15" d="M404.338,586.853l-14.1-56.549,0-.053,1.365-27.936.715.035-1.362,27.883,14.075,56.446Z" transform="translate(-390.238 -502.315)" fill="#fff"/>
      </g>
      <g id="Groupe_19" data-name="Groupe 19" transform="translate(0 8.212)">
        <g id="Groupe_18" data-name="Groupe 18">
          <path id="Tracé_16" data-name="Tracé 16" d="M309.85,402.461a24.426,24.426,0,1,0-42.732,16.164h-.005l18.311,24.139L303.9,418.437h-.009A24.325,24.325,0,0,0,309.85,402.461Zm-24.273,10.992A11.45,11.45,0,1,1,297.027,402,11.449,11.449,0,0,1,285.577,413.453Z" transform="translate(-260.998 -378.035)" fill="#0060a2"/>
        </g>
      </g>
      <g id="Groupe_20" data-name="Groupe 20" transform="translate(63.705 28.804)">
        <path id="Tracé_17" data-name="Tracé 17" d="M354.842,428.737s15.456-10.393,20.941-20.367l8.258,17.874L361.3,439.1Z" transform="translate(-354.842 -408.37)" fill="#c54029"/>
      </g>
      <g id="Groupe_21" data-name="Groupe 21" transform="translate(28.646 31.765)">
        <path id="Tracé_18" data-name="Tracé 18" d="M354.344,436.763l-6.619,8.418-5,6.357a4.275,4.275,0,0,1-6.088.654L310.75,430.813s-7.9-5.588-7.542-14.586c0,0,.189-3.068,2.8-3.5,0,0,3.975.428,5.594,5.346l-.4-2.7s2.067-1.121,3.194,4.1v3.893l1.4,1.7,22.417,14.946,4.305-5.615,2.717-3.544Z" transform="translate(-303.196 -412.731)" fill="#fe9f9f"/>
      </g>
      <g id="Groupe_22" data-name="Groupe 22" transform="translate(67.965 49.889)">
        <path id="Tracé_19" data-name="Tracé 19" d="M372.946,445.338l-6.619,8.418-5.209-10.781,2.717-3.545Z" transform="translate(-361.118 -439.43)" fill="#eb8f8f"/>
      </g>
      <g id="Groupe_23" data-name="Groupe 23" transform="translate(67.629 25.496)">
        <path id="Tracé_20" data-name="Tracé 20" d="M377.416,406.516l7.726-3.019s11.786,9.483,15.282,34.654l3.862,21.7s-5.788,6.633-17.506,1.044c-5.859-2.795-14.958-.14-14.958-.14l3.406-15.313-4.158-8.427-1.9,2.168-8.549-9.16S369.026,414.208,377.416,406.516Z" transform="translate(-360.623 -403.497)" fill="#ec6142"/>
      </g>
      <g id="Groupe_24" data-name="Groupe 24" transform="translate(95.973 180.705)">
        <path id="Tracé_21" data-name="Tracé 21" d="M420.283,632.135h-8.613l-9.295,5.969h18.863Z" transform="translate(-402.376 -632.135)" fill="#330766"/>
      </g>
      <g id="Groupe_25" data-name="Groupe 25" transform="translate(71.141 180.705)">
        <path id="Tracé_22" data-name="Tracé 22" d="M383.7,632.135h-8.613L365.8,638.1h18.863Z" transform="translate(-365.796 -632.135)" fill="#330766"/>
      </g>
    </g>
    <g id="Plant" transform="translate(1074.17 -240.795)">
      <g id="Groupe_27" data-name="Groupe 27" transform="translate(24.121 20.441)">
        <path id="Tracé_24" data-name="Tracé 24" d="M210.541,597.878s8.408,11.929-3.951,18.568a14.383,14.383,0,0,1-.479,2.227H190.032a8.585,8.585,0,0,1-.19-6.131s-4.417-13.08,5.287-17.38c0,0-1.279-10.873,6.314-12.286,0,0,2.322-16.822,9.246-14.293,0,0,4.5,3.634.783,17.581C211.471,586.165,218.047,592.24,210.541,597.878Z" transform="translate(-188.838 -568.325)" fill="#62cbd0"/>
      </g>
      <g id="Groupe_28" data-name="Groupe 28" transform="translate(32.015 20.36)">
        <path id="Tracé_25" data-name="Tracé 25" d="M201.079,618.607l-.612-.237c2.584-6.676,13.512-49.73,13.623-50.163l.635.161C214.615,568.8,203.677,611.9,201.079,618.607Z" transform="translate(-200.467 -568.207)" fill="#fff"/>
      </g>
      <g id="Groupe_29" data-name="Groupe 29" transform="translate(42.147 32.453)">
        <rect id="Rectangle_2" data-name="Rectangle 2" width="5.955" height="0.655" transform="translate(0 1.877) rotate(-18.377)" fill="#fff"/>
      </g>
      <g id="Groupe_30" data-name="Groupe 30" transform="translate(34.007 35.717)">
        <rect id="Rectangle_3" data-name="Rectangle 3" width="0.655" height="8.493" transform="translate(0 0.472) rotate(-46.018)" fill="#fff"/>
      </g>
      <g id="Groupe_31" data-name="Groupe 31" transform="translate(37.873 49.713)">
        <rect id="Rectangle_4" data-name="Rectangle 4" width="7.988" height="0.656" transform="matrix(0.993, -0.115, 0.115, 0.993, 0, 0.919)" fill="#fff"/>
      </g>
      <g id="Groupe_32" data-name="Groupe 32" transform="translate(26.459 49.788)">
        <rect id="Rectangle_5" data-name="Rectangle 5" width="0.655" height="12.239" transform="matrix(0.646, -0.763, 0.763, 0.646, 0, 0.5)" fill="#fff"/>
      </g>
      <g id="Groupe_33" data-name="Groupe 33" transform="translate(34.235 64.007)">
        <rect id="Rectangle_6" data-name="Rectangle 6" width="12.624" height="0.655" fill="#fff"/>
      </g>
      <g id="Groupe_34" data-name="Groupe 34" transform="translate(24.222 61.617)">
        <rect id="Rectangle_7" data-name="Rectangle 7" width="0.655" height="11.533" transform="matrix(0.709, -0.705, 0.705, 0.709, 0, 0.462)" fill="#fff"/>
      </g>
      <g id="Groupe_35" data-name="Groupe 35" transform="translate(0 0.112)">
        <path id="Tracé_26" data-name="Tracé 26" d="M158.331,579.689s-11.753,16.674,5.523,25.955a20.065,20.065,0,0,0,.67,3.113H187a12,12,0,0,0,.266-8.569s6.175-18.283-7.391-24.294c0,0,1.787-15.2-8.826-17.174,0,0-3.246-23.514-12.924-19.979,0,0-6.291,5.08-1.094,24.574C157.031,563.316,147.84,571.808,158.331,579.689Z" transform="translate(-153.306 -538.38)" fill="#a7dffa"/>
      </g>
      <g id="Groupe_36" data-name="Groupe 36" transform="translate(4.398)">
        <path id="Tracé_27" data-name="Tracé 27" d="M178.883,608.869c-3.632-9.382-18.945-69.821-19.1-70.429l.888-.225c.154.609,15.454,60.994,19.066,70.325Z" transform="translate(-159.784 -538.214)" fill="#fff"/>
      </g>
      <g id="Groupe_37" data-name="Groupe 37" transform="translate(1.976 16.903)">
        <rect id="Rectangle_8" data-name="Rectangle 8" width="0.916" height="8.324" transform="matrix(0.315, -0.949, 0.949, 0.315, 0, 0.869)" fill="#fff"/>
      </g>
      <g id="Groupe_38" data-name="Groupe 38" transform="translate(12.364 21.465)">
        <rect id="Rectangle_9" data-name="Rectangle 9" width="11.872" height="0.916" transform="matrix(0.72, -0.694, 0.694, 0.72, 0, 8.245)" fill="#fff"/>
      </g>
      <g id="Groupe_39" data-name="Groupe 39" transform="translate(4.941 41.029)">
        <rect id="Rectangle_10" data-name="Rectangle 10" width="0.916" height="11.166" transform="translate(0 0.91) rotate(-83.385)" fill="#fff"/>
      </g>
      <g id="Groupe_40" data-name="Groupe 40" transform="translate(18.446 41.134)">
        <rect id="Rectangle_11" data-name="Rectangle 11" width="17.107" height="0.916" transform="translate(0 11.056) rotate(-40.259)" fill="#fff"/>
      </g>
      <g id="Groupe_41" data-name="Groupe 41" transform="translate(3.578 61.009)">
        <rect id="Rectangle_12" data-name="Rectangle 12" width="17.646" height="0.916" fill="#fff"/>
      </g>
      <g id="Groupe_42" data-name="Groupe 42" transform="translate(23.203 57.669)">
        <rect id="Rectangle_13" data-name="Rectangle 13" width="16.121" height="0.916" transform="translate(0 11.43) rotate(-45.158)" fill="#fff"/>
      </g>
    </g>
    <g id="Plant-2" data-name="Plant" transform="translate(1265.793 -253.441)">
      <g id="Groupe_43" data-name="Groupe 43" transform="translate(14.699 9.271)">
        <path id="Tracé_28" data-name="Tracé 28" d="M478.943,562.8s8.408,11.929-3.951,18.568a14.343,14.343,0,0,1-.48,2.227H458.434a8.586,8.586,0,0,1-.191-6.13s-4.417-13.08,5.288-17.38c0,0-1.279-10.874,6.314-12.287,0,0,2.322-16.822,9.246-14.292,0,0,4.5,3.634.783,17.581C479.874,551.083,486.449,557.158,478.943,562.8Z" transform="translate(-457.241 -533.243)" fill="#62cbd0"/>
      </g>
      <g id="Groupe_44" data-name="Groupe 44" transform="translate(22.594 9.191)">
        <path id="Tracé_29" data-name="Tracé 29" d="M469.481,583.525l-.611-.237c2.584-6.676,13.513-49.73,13.623-50.163l.635.161C483.018,533.72,472.08,576.813,469.481,583.525Z" transform="translate(-468.87 -533.125)" fill="#fff"/>
      </g>
      <g id="Groupe_45" data-name="Groupe 45" transform="translate(32.726 21.284)">
        <rect id="Rectangle_14" data-name="Rectangle 14" width="5.955" height="0.655" transform="matrix(0.949, -0.315, 0.315, 0.949, 0, 1.875)" fill="#fff"/>
      </g>
      <g id="Groupe_46" data-name="Groupe 46" transform="translate(24.586 24.547)">
        <rect id="Rectangle_15" data-name="Rectangle 15" width="0.655" height="8.493" transform="translate(0 0.472) rotate(-46.02)" fill="#fff"/>
      </g>
      <g id="Groupe_47" data-name="Groupe 47" transform="translate(28.452 38.541)">
        <rect id="Rectangle_16" data-name="Rectangle 16" width="7.988" height="0.656" transform="translate(0 0.923) rotate(-6.634)" fill="#fff"/>
      </g>
      <g id="Groupe_48" data-name="Groupe 48" transform="translate(17.038 38.618)">
        <rect id="Rectangle_17" data-name="Rectangle 17" width="0.655" height="12.239" transform="matrix(0.646, -0.763, 0.763, 0.646, 0, 0.5)" fill="#fff"/>
      </g>
      <g id="Groupe_49" data-name="Groupe 49" transform="translate(24.813 52.837)">
        <rect id="Rectangle_18" data-name="Rectangle 18" width="12.624" height="0.655" fill="#fff"/>
      </g>
      <g id="Groupe_50" data-name="Groupe 50" transform="translate(14.8 50.447)">
        <rect id="Rectangle_19" data-name="Rectangle 19" width="0.655" height="11.533" transform="translate(0 0.462) rotate(-44.849)" fill="#fff"/>
      </g>
      <g id="Groupe_51" data-name="Groupe 51" transform="translate(0 0.093)">
        <path id="Tracé_30" data-name="Tracé 30" d="M439.751,553.949s-9.738,13.816,4.577,21.506a16.6,16.6,0,0,0,.555,2.579H463.5a9.942,9.942,0,0,0,.221-7.1s5.116-15.149-6.124-20.129c0,0,1.481-12.593-7.312-14.23,0,0-2.69-19.483-10.709-16.553,0,0-5.212,4.209-.906,20.36C438.674,540.383,431.059,547.42,439.751,553.949Z" transform="translate(-435.587 -519.723)" fill="#a7dffa"/>
      </g>
      <g id="Groupe_52" data-name="Groupe 52" transform="translate(3.643)">
        <path id="Tracé_31" data-name="Tracé 31" d="M456.779,578.127c-3.009-7.774-15.7-57.85-15.825-58.355l.736-.186c.128.5,12.8,50.535,15.8,58.267Z" transform="translate(-440.954 -519.586)" fill="#fff"/>
      </g>
      <g id="Groupe_53" data-name="Groupe 53" transform="translate(1.637 14.004)">
        <rect id="Rectangle_20" data-name="Rectangle 20" width="0.759" height="6.897" transform="matrix(0.315, -0.949, 0.949, 0.315, 0, 0.72)" fill="#fff"/>
      </g>
      <g id="Groupe_54" data-name="Groupe 54" transform="translate(10.244 17.784)">
        <rect id="Rectangle_21" data-name="Rectangle 21" width="9.836" height="0.759" transform="translate(0 6.831) rotate(-43.982)" fill="#fff"/>
      </g>
      <g id="Groupe_55" data-name="Groupe 55" transform="translate(4.094 33.994)">
        <rect id="Rectangle_22" data-name="Rectangle 22" width="0.759" height="9.252" transform="translate(0 0.754) rotate(-83.384)" fill="#fff"/>
      </g>
      <g id="Groupe_56" data-name="Groupe 56" transform="translate(15.283 34.082)">
        <rect id="Rectangle_23" data-name="Rectangle 23" width="14.174" height="0.759" transform="translate(0 9.158) rotate(-40.25)" fill="#fff"/>
      </g>
      <g id="Groupe_57" data-name="Groupe 57" transform="translate(2.965 50.549)">
        <rect id="Rectangle_24" data-name="Rectangle 24" width="14.621" height="0.759" fill="#fff"/>
      </g>
      <g id="Groupe_58" data-name="Groupe 58" transform="translate(19.222 47.783)">
        <rect id="Rectangle_25" data-name="Rectangle 25" width="13.357" height="0.759" transform="translate(0 9.466) rotate(-45.127)" fill="#fff"/>
      </g>
      <g id="Groupe_59" data-name="Groupe 59" transform="translate(4.994 58.251)">
        <path id="Tracé_32" data-name="Tracé 32" d="M442.944,605.4h35.309L471,629.822h-21.04Z" transform="translate(-442.944 -605.396)" fill="#4385f5"/>
      </g>
    </g>
    <g id="Location_Icon" data-name="Location Icon" transform="translate(1254.444 -388.154)">
      <path id="Tracé_33" data-name="Tracé 33" d="M441.106,332.258a11.118,11.118,0,1,0-19.451,7.357h0l8.335,10.988,8.41-11.073h0A11.07,11.07,0,0,0,441.106,332.258Zm-11.049,5a5.212,5.212,0,1,1,5.211-5.212A5.211,5.211,0,0,1,430.057,337.261Z" transform="translate(-418.869 -321.139)" fill="#ee9141"/>
    </g>
    <g id="Line" transform="translate(1065.761 -170.916)">
      <rect id="Rectangle_26" data-name="Rectangle 26" width="248.534" height="0.916" fill="#112f4b"/>
    </g>
  </g>
</svg>
