<svg xmlns="http://www.w3.org/2000/svg" width="24.001" height="24" viewBox="0 0 24.001 24">
  <g id="fi-rr-opacity" transform="translate(0.001)">
    <path id="Tracé_1519" data-name="Tracé 1519" d="M2.886,6.836A1,1,0,0,0,3.715,6.4,10.015,10.015,0,0,1,6.524,3.63a1,1,0,0,0-1.1-1.672A12,12,0,0,0,2.06,5.275a1,1,0,0,0,.826,1.561Z" fill="#0060a2"/>
    <path id="Tracé_1520" data-name="Tracé 1520" d="M2,12a10.112,10.112,0,0,1,.193-1.969A1,1,0,1,0,.232,9.639a12.135,12.135,0,0,0,0,4.728,1,1,0,0,0,.98.8,1.019,1.019,0,0,0,.2-.019A1,1,0,0,0,2.2,13.971,10.1,10.1,0,0,1,2,12Z" fill="#0060a2"/>
    <path id="Tracé_1521" data-name="Tracé 1521" d="M6.528,20.372a10,10,0,0,1-2.81-2.766,1,1,0,0,0-1.656,1.123,11.993,11.993,0,0,0,3.37,3.315,1,1,0,1,0,1.1-1.672Z" fill="#0060a2"/>
    <path id="Tracé_1522" data-name="Tracé 1522" d="M12,0A12.107,12.107,0,0,0,9.829.2a1,1,0,0,0,.179,1.984,1.126,1.126,0,0,0,.181-.016A10.033,10.033,0,0,1,12,2V22a10.033,10.033,0,0,1-1.811-.164,1,1,0,1,0-.36,1.968A12,12,0,1,0,12,0Z" fill="#0060a2"/>
  </g>
</svg>
