<svg xmlns="http://www.w3.org/2000/svg" xmlns:xlink="http://www.w3.org/1999/xlink" width="328.26" height="228.022" viewBox="0 0 328.26 228.022">
  <defs>
    <clipPath id="clip-path">
      <rect width="19.396" height="27.193" fill="none"/>
    </clipPath>
    <clipPath id="clip-path-2">
      <rect width="10.982" height="19.097" fill="none"/>
    </clipPath>
  </defs>
  <g id="Ecommerce" transform="translate(-1.403)">
    <g id="Plant" transform="translate(1.362 161.938) rotate(-25)">
      <g id="Groupe_27" data-name="Groupe 27" transform="translate(20.933 17.739)">
        <path id="Tracé_24" data-name="Tracé 24" d="M18.834,25.647S26.131,36,15.405,41.761a12.483,12.483,0,0,1-.416,1.933H1.035a7.45,7.45,0,0,1-.165-5.32S-2.963,27.023,5.459,23.291c0,0-1.11-9.436,5.479-10.662,0,0,2.015-14.6,8.024-12.4,0,0,3.905,3.154.679,15.257C19.641,15.482,25.348,20.754,18.834,25.647Z" fill="#62cbd0"/>
      </g>
      <g id="Groupe_28" data-name="Groupe 28" transform="translate(27.784 17.669)">
        <path id="Tracé_25" data-name="Tracé 25" d="M.531,43.739,0,43.533C2.243,37.74,11.726.376,11.822,0l.551.14C12.278.517,2.785,37.914.531,43.739Z" fill="#fff"/>
      </g>
      <g id="Groupe_29" data-name="Groupe 29" transform="translate(36.577 28.163)">
        <rect id="Rectangle_2" data-name="Rectangle 2" width="5.168" height="0.569" transform="translate(0 1.629) rotate(-18.377)" fill="#fff"/>
      </g>
      <g id="Groupe_30" data-name="Groupe 30" transform="translate(29.512 30.996)">
        <rect id="Rectangle_3" data-name="Rectangle 3" width="0.569" height="7.37" transform="translate(0 0.409) rotate(-46.018)" fill="#fff"/>
      </g>
      <g id="Groupe_31" data-name="Groupe 31" transform="translate(32.867 43.143)">
        <rect id="Rectangle_4" data-name="Rectangle 4" width="6.933" height="0.569" transform="matrix(0.993, -0.115, 0.115, 0.993, 0, 0.798)" fill="#fff"/>
      </g>
      <g id="Groupe_32" data-name="Groupe 32" transform="translate(22.962 43.208)">
        <rect id="Rectangle_5" data-name="Rectangle 5" width="0.569" height="10.621" transform="matrix(0.646, -0.763, 0.763, 0.646, 0, 0.434)" fill="#fff"/>
      </g>
      <g id="Groupe_33" data-name="Groupe 33" transform="translate(29.71 55.547)">
        <rect id="Rectangle_6" data-name="Rectangle 6" width="10.956" height="0.569" fill="#fff"/>
      </g>
      <g id="Groupe_34" data-name="Groupe 34" transform="translate(21.02 53.473)">
        <rect id="Rectangle_7" data-name="Rectangle 7" width="0.569" height="10.008" transform="matrix(0.709, -0.705, 0.705, 0.709, 0, 0.401)" fill="#fff"/>
      </g>
      <g id="Groupe_35" data-name="Groupe 35" transform="translate(0 0.098)">
        <path id="Tracé_26" data-name="Tracé 26" d="M4.361,35.85S-5.838,50.32,9.155,58.374a17.413,17.413,0,0,0,.581,2.7h19.5a10.417,10.417,0,0,0,.231-7.436s5.359-15.867-6.414-21.083c0,0,1.551-13.19-7.659-14.9,0,0-2.817-20.406-11.216-17.338,0,0-5.459,4.409-.95,21.326C3.233,21.64-4.743,29.01,4.361,35.85Z" fill="#a7dffa"/>
      </g>
      <g id="Groupe_36" data-name="Groupe 36" transform="translate(3.817)">
        <path id="Tracé_27" data-name="Tracé 27" d="M16.575,61.316C13.423,53.174.134.724,0,.2L.771,0C.9.528,14.182,52.932,17.316,61.03Z" fill="#fff"/>
      </g>
      <g id="Groupe_37" data-name="Groupe 37" transform="translate(1.715 14.669)">
        <rect id="Rectangle_8" data-name="Rectangle 8" width="0.795" height="7.224" transform="matrix(0.315, -0.949, 0.949, 0.315, 0, 0.755)" fill="#fff"/>
      </g>
      <g id="Groupe_38" data-name="Groupe 38" transform="translate(10.73 18.628)">
        <rect id="Rectangle_9" data-name="Rectangle 9" width="10.303" height="0.795" transform="matrix(0.72, -0.694, 0.694, 0.72, 0, 7.155)" fill="#fff"/>
      </g>
      <g id="Groupe_39" data-name="Groupe 39" transform="translate(4.288 35.606)">
        <rect id="Rectangle_10" data-name="Rectangle 10" width="0.795" height="9.69" transform="translate(0 0.79) rotate(-83.385)" fill="#fff"/>
      </g>
      <g id="Groupe_40" data-name="Groupe 40" transform="translate(16.008 35.697)">
        <rect id="Rectangle_11" data-name="Rectangle 11" width="14.846" height="0.795" transform="translate(0 9.594) rotate(-40.259)" fill="#fff"/>
      </g>
      <g id="Groupe_41" data-name="Groupe 41" transform="translate(3.105 52.946)">
        <rect id="Rectangle_12" data-name="Rectangle 12" width="15.314" height="0.795" fill="#fff"/>
      </g>
      <g id="Groupe_42" data-name="Groupe 42" transform="translate(20.136 50.046)">
        <rect id="Rectangle_13" data-name="Rectangle 13" width="13.99" height="0.795" transform="translate(0 9.92) rotate(-45.158)" fill="#fff"/>
      </g>
    </g>
    <g id="Ornament_Copy" data-name="Ornament Copy" transform="translate(27.345 171.46)">
      <path id="Shape" d="M56.442,0A56.451,56.451,0,0,0,0,56.459H74.414Z" transform="translate(0)" fill="#dff1f7"/>
    </g>
    <g id="Data_Copy" data-name="Data Copy" transform="translate(172.493 71.778)">
      <path id="Shape-2" data-name="Shape" d="M0,50.959a50.948,50.948,0,1,1,50.948,50.96A50.953,50.953,0,0,1,0,50.959Z" transform="translate(0)" fill="#dff1f7"/>
    </g>
    <g id="Smartphone_Copy" data-name="Smartphone Copy" transform="translate(83.212)">
      <path id="Shape-3" data-name="Shape" d="M10.515,0h119.2a10.515,10.515,0,0,1,10.515,10.515v206.91a10.515,10.515,0,0,1-10.515,10.515H10.515A10.515,10.515,0,0,1,0,217.425V10.515A10.515,10.515,0,0,1,10.515,0Z" fill="#5faee5"/>
      <path id="Shape-4" data-name="Shape" d="M128.545,189.367H0V0H128.545V189.366Z" transform="translate(5.842 14.027)" fill="#fff"/>
      <path id="Shape-5" data-name="Shape" d="M33.655,21.041H1.4a1.4,1.4,0,0,1-1.4-1.4v-4.21a1.4,1.4,0,0,1,1.4-1.4H33.655a1.4,1.4,0,0,1,1.4,1.4v4.21A1.4,1.4,0,0,1,33.655,21.041ZM23.138,7.014H1.4A1.4,1.4,0,0,1,0,5.612V1.4A1.4,1.4,0,0,1,1.4,0H23.138a1.4,1.4,0,0,1,1.4,1.4v4.21A1.4,1.4,0,0,1,23.138,7.014Z" transform="translate(93.252 24.547)" fill="#a7dffa"/>
      <path id="Shape-6" data-name="Shape" d="M33.655,21.041H1.4a1.4,1.4,0,0,1-1.4-1.4v-4.21a1.4,1.4,0,0,1,1.4-1.4H33.655a1.4,1.4,0,0,1,1.4,1.4v4.21A1.4,1.4,0,0,1,33.655,21.041ZM23.138,7.014H1.4A1.4,1.4,0,0,1,0,5.612V1.4A1.4,1.4,0,0,1,1.4,0H23.138a1.4,1.4,0,0,1,1.4,1.4v4.21A1.4,1.4,0,0,1,23.138,7.014Z" transform="translate(93.252 87.67)" fill="#f0b078"/>
      <path id="Shape-7" data-name="Shape" d="M34.356,14.027H.7a.7.7,0,0,1-.7-.7v-2.1a.7.7,0,0,1,.7-.7H34.356a.7.7,0,0,1,.7.7v2.1A.7.7,0,0,1,34.356,14.027Zm0-10.52H.7a.7.7,0,0,1-.7-.7V.7A.7.7,0,0,1,.7,0H34.356a.7.7,0,0,1,.7.7v2.1A.7.7,0,0,1,34.356,3.507Z" transform="translate(93.252 52.602)" fill="#a7dffa" opacity="0.5"/>
      <path id="Shape-8" data-name="Shape" d="M34.356,0a.7.7,0,0,1,.7.7v2.1a.7.7,0,0,1-.7.7H.7a.7.7,0,0,1-.7-.7V.7A.7.7,0,0,1,.7,0Z" transform="translate(93.252 115.724)" fill="#f0b078" opacity="0.5"/>
      <path id="Shape-9" data-name="Shape" d="M0,0H70.763V38.6H0Z" transform="translate(10.658 92.877)" fill="#f0b078"/>
      <path id="Shape-10" data-name="Shape" d="M12.786,12.786V0H0A12.786,12.786,0,0,0,12.786,12.786Z" transform="translate(68.555 92.958)" fill="#ffe0c5"/>
      <path id="Shape-11" data-name="Shape" d="M11.981,0,23.963,23.963H0Z" transform="translate(34.139 107.512)" fill="#ee9141"/>
      <path id="Shape-12" data-name="Shape" d="M16.565,0,33.13,33.13H0Z" transform="translate(10.658 98.345)" fill="#ee9141"/>
      <g id="Groupe_9971" data-name="Groupe 9971" transform="translate(11.361 28.031)">
        <path id="Shape-13" data-name="Shape" d="M0,0H70.763V38.6H0Z" fill="#a7dffa"/>
        <path id="Shape-14" data-name="Shape" d="M0,0H25.769V29.276H0Z" transform="translate(8.736 9.322)" fill="#84c6e6"/>
        <g id="Grille_de_répétition_1" data-name="Grille de répétition 1" transform="translate(11.34 11.405)" clip-path="url(#clip-path)">
          <g id="Groupe_9970" data-name="Groupe 9970" transform="translate(-28.158 -49.99)">
            <path id="Shape-15" data-name="Shape" d="M0,0H4.843V5.006H0Z" transform="translate(28.158 49.99)" fill="#a7dffa"/>
            <path id="Shape-16" data-name="Shape" d="M0,0H4.843V5.006H0Z" transform="translate(34.762 49.99)" fill="#a7dffa"/>
            <path id="Shape-17" data-name="Shape" d="M0,0H4.843V5.006H0Z" transform="translate(41.366 49.99)" fill="#a7dffa"/>
            <path id="Shape-18" data-name="Shape" d="M0,0H4.843V5.006H0Z" transform="translate(47.97 49.99)" fill="#a7dffa"/>
          </g>
          <g id="Groupe_9970-2" data-name="Groupe 9970" transform="translate(-28.158 -41.99)">
            <path id="Shape-19" data-name="Shape" d="M0,0H4.843V5.006H0Z" transform="translate(28.158 49.99)" fill="#a7dffa"/>
            <path id="Shape-20" data-name="Shape" d="M0,0H4.843V5.006H0Z" transform="translate(34.762 49.99)" fill="#a7dffa"/>
            <path id="Shape-21" data-name="Shape" d="M0,0H4.843V5.006H0Z" transform="translate(41.366 49.99)" fill="#a7dffa"/>
            <path id="Shape-22" data-name="Shape" d="M0,0H4.843V5.006H0Z" transform="translate(47.97 49.99)" fill="#a7dffa"/>
          </g>
          <g id="Groupe_9970-3" data-name="Groupe 9970" transform="translate(-28.158 -33.99)">
            <path id="Shape-23" data-name="Shape" d="M0,0H4.843V5.006H0Z" transform="translate(28.158 49.99)" fill="#a7dffa"/>
            <path id="Shape-24" data-name="Shape" d="M0,0H4.843V5.006H0Z" transform="translate(34.762 49.99)" fill="#a7dffa"/>
            <path id="Shape-25" data-name="Shape" d="M0,0H4.843V5.006H0Z" transform="translate(41.366 49.99)" fill="#a7dffa"/>
            <path id="Shape-26" data-name="Shape" d="M0,0H4.843V5.006H0Z" transform="translate(47.97 49.99)" fill="#a7dffa"/>
          </g>
          <g id="Groupe_9970-4" data-name="Groupe 9970" transform="translate(-28.158 -25.99)">
            <path id="Shape-27" data-name="Shape" d="M0,0H4.843V5.006H0Z" transform="translate(28.158 49.99)" fill="#a7dffa"/>
            <path id="Shape-28" data-name="Shape" d="M0,0H4.843V5.006H0Z" transform="translate(34.762 49.99)" fill="#a7dffa"/>
            <path id="Shape-29" data-name="Shape" d="M0,0H4.843V5.006H0Z" transform="translate(41.366 49.99)" fill="#a7dffa"/>
            <path id="Shape-30" data-name="Shape" d="M0,0H4.843V5.006H0Z" transform="translate(47.97 49.99)" fill="#a7dffa"/>
          </g>
        </g>
        <path id="Shape-31" data-name="Shape" d="M0,0H14.316V23.027H0Z" transform="translate(35.639 15.571)" fill="#84c6e6"/>
        <g id="Grille_de_répétition_2" data-name="Grille de répétition 2" transform="translate(37.375 18.348)" clip-path="url(#clip-path-2)">
          <g id="Groupe_9970-5" data-name="Groupe 9970" transform="translate(-28.158 -49.99)">
            <path id="Shape-32" data-name="Shape" d="M0,0H4.843V5.006H0Z" transform="translate(28.158 49.99)" fill="#a7dffa"/>
            <path id="Shape-33" data-name="Shape" d="M0,0H4.843V5.006H0Z" transform="translate(34.762 49.99)" fill="#a7dffa"/>
            <path id="Shape-34" data-name="Shape" d="M0,0H4.843V5.006H0Z" transform="translate(41.366 49.99)" fill="#a7dffa"/>
            <path id="Shape-35" data-name="Shape" d="M0,0H4.843V5.006H0Z" transform="translate(47.97 49.99)" fill="#a7dffa"/>
          </g>
          <g id="Groupe_9970-6" data-name="Groupe 9970" transform="translate(-28.158 -41.99)">
            <path id="Shape-36" data-name="Shape" d="M0,0H4.843V5.006H0Z" transform="translate(28.158 49.99)" fill="#a7dffa"/>
            <path id="Shape-37" data-name="Shape" d="M0,0H4.843V5.006H0Z" transform="translate(34.762 49.99)" fill="#a7dffa"/>
            <path id="Shape-38" data-name="Shape" d="M0,0H4.843V5.006H0Z" transform="translate(41.366 49.99)" fill="#a7dffa"/>
            <path id="Shape-39" data-name="Shape" d="M0,0H4.843V5.006H0Z" transform="translate(47.97 49.99)" fill="#a7dffa"/>
          </g>
          <g id="Groupe_9970-7" data-name="Groupe 9970" transform="translate(-28.158 -33.99)">
            <path id="Shape-40" data-name="Shape" d="M0,0H4.843V5.006H0Z" transform="translate(28.158 49.99)" fill="#a7dffa"/>
            <path id="Shape-41" data-name="Shape" d="M0,0H4.843V5.006H0Z" transform="translate(34.762 49.99)" fill="#a7dffa"/>
            <path id="Shape-42" data-name="Shape" d="M0,0H4.843V5.006H0Z" transform="translate(41.366 49.99)" fill="#a7dffa"/>
            <path id="Shape-43" data-name="Shape" d="M0,0H4.843V5.006H0Z" transform="translate(47.97 49.99)" fill="#a7dffa"/>
          </g>
        </g>
        <g id="Background" transform="translate(51.544 4.086)">
          <path id="Tracé_1653" data-name="Tracé 1653" d="M624.371,504.684H610.2a2.974,2.974,0,0,1,3.087-1.606,2.466,2.466,0,0,1,2.695-2.266s2-3.055,4.936-.02c0,0,2.166.216,1.845,2.179C622.765,502.971,624.407,503.185,624.371,504.684Z" transform="translate(-610.202 -499.447)" fill="#d0effe"/>
        </g>
        <g id="Background-2" data-name="Background" transform="translate(42.866 3.83)">
          <path id="Tracé_1653-2" data-name="Tracé 1653" d="M627.558,505.861H610.2a3.643,3.643,0,0,1,3.782-1.967s.35-3.1,3.3-2.776c0,0,2.452-3.743,6.046-.024,0,0,2.654.265,2.26,2.669C625.591,503.763,627.6,504.025,627.558,505.861Z" transform="translate(-610.202 -499.447)" fill="#d0effe"/>
        </g>
      </g>
      <g id="Groupe_9972" data-name="Groupe 9972" transform="translate(10.578 150.154)">
        <path id="Shape-44" data-name="Shape" d="M0,0H70.763V38.6H0Z" fill="#62cbd0"/>
        <g id="Background-3" data-name="Background" transform="translate(40.178 7.243)">
          <path id="Tracé_1653-3" data-name="Tracé 1653" d="M624.371,504.684H610.2a2.974,2.974,0,0,1,3.087-1.606,2.466,2.466,0,0,1,2.695-2.266s2-3.055,4.936-.02c0,0,2.166.216,1.845,2.179C622.765,502.971,624.407,503.185,624.371,504.684Z" transform="translate(-610.202 -499.447)" fill="#98dfe2"/>
        </g>
        <g id="Background-4" data-name="Background" transform="translate(31.499 6.987)">
          <path id="Tracé_1653-4" data-name="Tracé 1653" d="M627.558,505.861H610.2a3.643,3.643,0,0,1,3.782-1.967s.35-3.1,3.3-2.776c0,0,2.452-3.743,6.046-.024,0,0,2.654.265,2.26,2.669C625.591,503.763,627.6,504.025,627.558,505.861Z" transform="translate(-610.202 -499.447)" fill="#98dfe2"/>
        </g>
        <path id="Union_5" data-name="Union 5" d="M23.561,29.658H0L13.178,3.3l4.366,8.732L23.561,0l7.414,14.829L36.739,3.3,49.917,29.658Z" transform="translate(0 8.94)" fill="#50b7bc"/>
      </g>
    </g>
    <g id="Credit_Card_Copy" data-name="Credit Card Copy" transform="translate(154.378 122.737)">
      <path id="Shape-45" data-name="Shape" d="M3.505,0H171.78a3.505,3.505,0,0,1,3.505,3.505V101.7a3.505,3.505,0,0,1-3.505,3.505H3.505A3.505,3.505,0,0,1,0,101.7V3.505A3.505,3.505,0,0,1,3.505,0Z" transform="translate(0 0)" fill="#0060a2"/>
      <path id="Shape-46" data-name="Shape" d="M0,0H175.285V21.041H0Z" transform="translate(0 17.534)" fill="#fff"/>
      <path id="Shape-47" data-name="Shape" d="M52.586,22.794H28.046V15.78h24.54v7.013Zm-31.551,0H0V15.78H21.034v7.013ZM70.114,7.014H35.057V0H70.114V7.013Zm-42.068,0H0V0H28.046V7.013Z" transform="translate(14.023 68.382)" fill="#90b0c7"/>
      <ellipse id="Shape-48" data-name="Shape" cx="11.919" cy="11.923" rx="11.919" ry="11.923" transform="translate(121.648 68.382)" fill="#8bb5fc"/>
      <ellipse id="Shape-49" data-name="Shape" cx="11.919" cy="11.923" rx="11.919" ry="11.923" transform="translate(133.568 68.382)" fill="#4385f5"/>
    </g>
    <g id="Women_Copy" data-name="Women Copy" transform="translate(38.011 58.962)">
      <path id="Shape-50" data-name="Shape" d="M0,16.7l15.586,5.338L43.183,0,39.629,5.371a4.405,4.405,0,0,1-.577,4.117,3.493,3.493,0,0,1-3.118,1.44L17.776,27.361s-1.074,1.594-4.386.616L1.037,24.087Z" transform="translate(34.062 41.45) rotate(98)" fill="#fe9f9f"/>
      <path id="Shape-51" data-name="Shape" d="M9.468,24.32.858,22.266l.769-3.617q-3.254-5.716,0-14.272T17.2,3.993l1.5,7.035a2.876,2.876,0,0,0-2.168,2.917c0,2.168-1.685,2.97-3.7,3.428Q10.815,17.831,9.468,24.32Z" transform="translate(20.912 4.066)" fill="#fe9f9f"/>
      <path id="Shape-52" data-name="Shape" d="M1.951,19.768S4.9,24.231,7.678,21.879s2.044-4.078.679-4.6-1.644-3.347,0-3.776,2.656,1.828,3.123,0-.3-3.711,1.831-3.711,7.1.805,8.085-2.467S19.792,0,14.075,0,3,2.816.858,7.8,1.951,19.768,1.951,19.768Z" transform="translate(17.573 0)" fill="#221e41"/>
      <path id="Shape-53" data-name="Shape" d="M20.473,2.935q-4.178-.676-3.943,3.476c.235,4.152,4.589,8.133-3.178,12.159s-5.235,11.7.161,13.481Q-2.109,27.629.329,16.983c2.439-10.646,11.2-4.622,11.5-12.085q.3-7.462,9.773-3.557Z" transform="translate(0 4.688)" fill="#221e41"/>
      <path id="Shape-54" data-name="Shape" d="M19.913,0,15.392,13.778,10.625,24.832c-6.5-4.509-6.356-5.571-6.356-5.571L10.625,5.73Z" transform="translate(2.082 25.413)" fill="#ec6142"/>
      <path id="Shape-55" data-name="Shape" d="M5.391,2a12.586,12.586,0,0,1,5.286-.275c2.992.406,6.415,1.1,5.354,2.8S10.1,6.287,7.693,5.917a15.86,15.86,0,0,0-4.99,0C.4,6.074,0,5.93,0,4.625S0,1.7,0,.983.108-.363,1.784.247A21.818,21.818,0,0,1,5.391,2Z" transform="translate(34.637 162.962)" fill="#221e41"/>
      <path id="Shape-56" data-name="Shape" d="M0,0H6.317V6.513l3.705.8a10.817,10.817,0,0,1-8.508.268L0,6.988Z" transform="translate(34.647 157.297)" fill="#fe9f9f"/>
      <path id="Shape-57" data-name="Shape" d="M5.391,2a12.586,12.586,0,0,1,5.286-.275c2.992.406,6.415,1.1,5.354,2.8S10.1,6.287,7.693,5.917a15.86,15.86,0,0,0-4.99,0C.4,6.074,0,5.93,0,4.625S0,1.7,0,.983.108-.363,1.784.247A21.818,21.818,0,0,1,5.391,2Z" transform="translate(16.235 162.962)" fill="#221e41"/>
      <path id="Shape-58" data-name="Shape" d="M0,0H6.317V6.513l3.705.8a10.817,10.817,0,0,1-8.508.268L0,6.988Z" transform="translate(16.245 157.297)" fill="#fe9f9f"/>
      <path id="Shape-59" data-name="Shape" d="M11.882,84.467H3.665L0,0,20.7.512Z" transform="translate(11.621 76.666)" fill="#1166bf"/>
      <path id="Shape-60" data-name="Shape" d="M30.657,84.265h-8.69L19.476,39.384,0,0,28.006.461l5.875,28.962a35.051,35.051,0,0,1,.575,9.923Z" transform="translate(11.6 76.773)" fill="#4385f5"/>
      <path id="Shape-61" data-name="Shape" d="M0,16.7l20.087,1.164L43.183,0,39.629,5.371a4.405,4.405,0,0,1-.577,4.117,3.493,3.493,0,0,1-3.118,1.44L23.973,24.1a5.842,5.842,0,0,1-4.432,1.915L1.1,25.683Z" transform="translate(43.771 14.36)" fill="#fe9f9f"/>
      <path id="Shape-62" data-name="Shape" d="M16.115,1.15c.74,0,8.9,2.23,24.373,5.675-2,9.25-2.75,11.02-2.75,11.02H29.066a11.359,11.359,0,0,1,1,5.452,7.442,7.442,0,0,1-3.076,6.124l1.525,24.267H0V13.418A12.268,12.268,0,0,1,12.268,1.15Z" transform="translate(11.115 23.6)" fill="#ec6142"/>
      <path id="Shape-63" data-name="Shape" d="M10.968,79.475l.056-2.044.291.009-.056,2.044Zm.136-4.964.056-2.044.292.008L11.4,74.519Zm.137-4.964L11.3,67.5l.292.008-.056,2.044Zm.137-4.964.056-2.044.292.008-.056,2.044Zm.137-4.964.056-2.044.292.009-.056,2.044Zm.137-4.964.056-2.044L12,52.62l-.056,2.044Zm.137-4.964.056-2.044.292.008L12.08,49.7Zm.137-4.964.056-2.044.292.008-.056,2.044Zm.137-4.964.03-1.1q.013-.47.011-.94l.292,0q0,.474-.011.95l-.03,1.1Zm-.4-6.964.287-.052q.179,1.012.287,2.035l-.291.03Q11.835,33.8,11.657,32.8Zm-1.272-4.775.275-.1q.349.968.628,1.957l-.281.079Q10.73,28.984,10.385,28.026ZM8.656,23.372l.273-.1.713,1.916-.274.1ZM6.925,18.718l.274-.1.712,1.917-.273.1ZM5.194,14.064l.273-.1.713,1.917-.274.1ZM3.462,9.41l.274-.1.712,1.917-.273.1ZM1.732,4.756,2,4.654,2.718,6.57l-.274.1ZM0,.1.274,0,.986,1.917l-.273.1Z" transform="translate(27.218 79.024)" fill="#a587ff"/>
    </g>
    <g id="Plant-2" data-name="Plant" transform="translate(251.081 61.304)">
      <g id="Groupe_27-2" data-name="Groupe 27" transform="translate(20.933 17.739)">
        <path id="Tracé_24-2" data-name="Tracé 24" d="M207.672,593.972s7.3,10.353-3.429,16.114a12.483,12.483,0,0,1-.416,1.933H189.874a7.45,7.45,0,0,1-.165-5.32s-3.833-11.351,4.589-15.083c0,0-1.11-9.436,5.479-10.662,0,0,2.015-14.6,8.024-12.4,0,0,3.905,3.154.679,15.257C208.48,583.807,214.186,589.079,207.672,593.972Z" transform="translate(-188.838 -568.325)" fill="#62cbd0"/>
      </g>
      <g id="Groupe_28-2" data-name="Groupe 28" transform="translate(27.784 17.669)">
        <path id="Tracé_25-2" data-name="Tracé 25" d="M201,611.946l-.531-.206c2.243-5.793,11.726-43.157,11.822-43.533l.551.14C212.745,568.724,203.252,606.121,201,611.946Z" transform="translate(-200.467 -568.207)" fill="#fff"/>
      </g>
      <g id="Groupe_29-2" data-name="Groupe 29" transform="translate(36.577 28.163)">
        <rect id="Rectangle_2-2" data-name="Rectangle 2" width="5.168" height="0.569" transform="translate(0 1.629) rotate(-18.377)" fill="#fff"/>
      </g>
      <g id="Groupe_30-2" data-name="Groupe 30" transform="translate(29.512 30.996)">
        <rect id="Rectangle_3-2" data-name="Rectangle 3" width="0.569" height="7.37" transform="translate(0 0.409) rotate(-46.018)" fill="#fff"/>
      </g>
      <g id="Groupe_31-2" data-name="Groupe 31" transform="translate(32.867 43.143)">
        <rect id="Rectangle_4-2" data-name="Rectangle 4" width="6.933" height="0.569" transform="matrix(0.993, -0.115, 0.115, 0.993, 0, 0.798)" fill="#fff"/>
      </g>
      <g id="Groupe_32-2" data-name="Groupe 32" transform="translate(22.962 43.208)">
        <rect id="Rectangle_5-2" data-name="Rectangle 5" width="0.569" height="10.621" transform="matrix(0.646, -0.763, 0.763, 0.646, 0, 0.434)" fill="#fff"/>
      </g>
      <g id="Groupe_33-2" data-name="Groupe 33" transform="translate(29.71 55.547)">
        <rect id="Rectangle_6-2" data-name="Rectangle 6" width="10.956" height="0.569" fill="#fff"/>
      </g>
      <g id="Groupe_34-2" data-name="Groupe 34" transform="translate(21.02 53.473)">
        <rect id="Rectangle_7-2" data-name="Rectangle 7" width="0.569" height="10.008" transform="matrix(0.709, -0.705, 0.705, 0.709, 0, 0.401)" fill="#fff"/>
      </g>
      <g id="Groupe_35-2" data-name="Groupe 35" transform="translate(0 0.098)">
        <path id="Tracé_26-2" data-name="Tracé 26" d="M157.667,574.229s-10.2,14.471,4.793,22.524a17.413,17.413,0,0,0,.581,2.7h19.5a10.417,10.417,0,0,0,.231-7.436s5.359-15.867-6.414-21.083c0,0,1.551-13.19-7.659-14.9,0,0-2.817-20.406-11.216-17.338,0,0-5.459,4.409-.95,21.326C156.538,560.02,148.562,567.39,157.667,574.229Z" transform="translate(-153.306 -538.38)" fill="#a7dffa"/>
      </g>
      <g id="Groupe_36-2" data-name="Groupe 36" transform="translate(3.817)">
        <path id="Tracé_27-2" data-name="Tracé 27" d="M176.359,599.53c-3.152-8.142-16.441-60.592-16.575-61.121l.771-.2c.134.528,13.411,52.932,16.546,61.03Z" transform="translate(-159.784 -538.214)" fill="#fff"/>
      </g>
      <g id="Groupe_37-2" data-name="Groupe 37" transform="translate(1.715 14.669)">
        <rect id="Rectangle_8-2" data-name="Rectangle 8" width="0.795" height="7.224" transform="matrix(0.315, -0.949, 0.949, 0.315, 0, 0.755)" fill="#fff"/>
      </g>
      <g id="Groupe_38-2" data-name="Groupe 38" transform="translate(10.73 18.628)">
        <rect id="Rectangle_9-2" data-name="Rectangle 9" width="10.303" height="0.795" transform="matrix(0.72, -0.694, 0.694, 0.72, 0, 7.155)" fill="#fff"/>
      </g>
      <g id="Groupe_39-2" data-name="Groupe 39" transform="translate(4.288 35.606)">
        <rect id="Rectangle_10-2" data-name="Rectangle 10" width="0.795" height="9.69" transform="translate(0 0.79) rotate(-83.385)" fill="#fff"/>
      </g>
      <g id="Groupe_40-2" data-name="Groupe 40" transform="translate(16.008 35.697)">
        <rect id="Rectangle_11-2" data-name="Rectangle 11" width="14.846" height="0.795" transform="translate(0 9.594) rotate(-40.259)" fill="#fff"/>
      </g>
      <g id="Groupe_41-2" data-name="Groupe 41" transform="translate(3.105 52.946)">
        <rect id="Rectangle_12-2" data-name="Rectangle 12" width="15.314" height="0.795" fill="#fff"/>
      </g>
      <g id="Groupe_42-2" data-name="Groupe 42" transform="translate(20.136 50.046)">
        <rect id="Rectangle_13-2" data-name="Rectangle 13" width="13.99" height="0.795" transform="translate(0 9.92) rotate(-45.158)" fill="#fff"/>
      </g>
    </g>
  </g>
</svg>
