<svg xmlns="http://www.w3.org/2000/svg" width="356.322" height="199.269" viewBox="0 0 356.322 199.269">
  <g id="Business_Schedule" data-name="Business Schedule" transform="translate(25.881 3.787)">
    <g id="Ornament" transform="translate(191.534 26.929)">
      <path id="Shape" d="M23.208,24.312a1.105,1.105,0,1,1,1.1-1.106A1.107,1.107,0,0,1,23.208,24.312Zm-4.421,0a1.105,1.105,0,1,1,1.1-1.106A1.106,1.106,0,0,1,18.788,24.312Zm-4.421,0a1.105,1.105,0,1,1,1.106-1.106A1.106,1.106,0,0,1,14.367,24.312Zm-4.421,0a1.105,1.105,0,1,1,1.106-1.106A1.106,1.106,0,0,1,9.946,24.312Zm-4.421,0a1.105,1.105,0,1,1,1.106-1.106A1.106,1.106,0,0,1,5.526,24.312Zm-4.421,0A1.105,1.105,0,1,1,2.21,23.207,1.106,1.106,0,0,1,1.1,24.312Zm22.1-4.421a1.105,1.105,0,1,1,1.1-1.1A1.106,1.106,0,0,1,23.208,19.892Zm-4.421,0a1.105,1.105,0,1,1,1.1-1.1A1.106,1.106,0,0,1,18.788,19.892Zm-4.421,0a1.105,1.105,0,1,1,1.106-1.1A1.106,1.106,0,0,1,14.367,19.892Zm-4.421,0a1.105,1.105,0,1,1,1.106-1.1A1.106,1.106,0,0,1,9.946,19.892Zm-4.421,0a1.105,1.105,0,1,1,1.106-1.1A1.106,1.106,0,0,1,5.526,19.892Zm-4.421,0a1.105,1.105,0,1,1,1.106-1.1A1.106,1.106,0,0,1,1.1,19.892Zm22.1-4.421a1.1,1.1,0,1,1,1.1-1.1A1.106,1.106,0,0,1,23.208,15.471Zm-4.421,0a1.1,1.1,0,1,1,1.1-1.1A1.106,1.106,0,0,1,18.788,15.471Zm-4.421,0a1.1,1.1,0,1,1,1.106-1.1A1.106,1.106,0,0,1,14.367,15.471Zm-4.421,0a1.1,1.1,0,1,1,1.106-1.1A1.106,1.106,0,0,1,9.946,15.471Zm-4.421,0a1.1,1.1,0,1,1,1.106-1.1A1.106,1.106,0,0,1,5.526,15.471Zm-4.421,0a1.1,1.1,0,1,1,1.106-1.1A1.106,1.106,0,0,1,1.1,15.471Zm22.1-4.42a1.105,1.105,0,1,1,1.1-1.106A1.107,1.107,0,0,1,23.208,11.051Zm-4.421,0a1.105,1.105,0,1,1,1.1-1.106A1.106,1.106,0,0,1,18.788,11.051Zm-4.421,0a1.105,1.105,0,1,1,1.106-1.106A1.106,1.106,0,0,1,14.367,11.051Zm-4.421,0a1.105,1.105,0,1,1,1.106-1.106A1.106,1.106,0,0,1,9.946,11.051Zm-4.421,0A1.105,1.105,0,1,1,6.631,9.945,1.106,1.106,0,0,1,5.526,11.051Zm-4.421,0A1.105,1.105,0,1,1,2.21,9.945,1.106,1.106,0,0,1,1.1,11.051Zm22.1-4.421a1.1,1.1,0,1,1,1.1-1.1A1.106,1.106,0,0,1,23.208,6.63Zm-4.421,0a1.1,1.1,0,1,1,1.1-1.1A1.106,1.106,0,0,1,18.788,6.63Zm-4.421,0a1.1,1.1,0,1,1,1.106-1.1A1.106,1.106,0,0,1,14.367,6.63Zm-4.421,0a1.1,1.1,0,1,1,1.106-1.1A1.106,1.106,0,0,1,9.946,6.63Zm-4.421,0a1.1,1.1,0,1,1,1.106-1.1A1.106,1.106,0,0,1,5.526,6.63ZM1.1,6.63a1.1,1.1,0,1,1,1.106-1.1A1.106,1.106,0,0,1,1.1,6.63Zm22.1-4.42a1.105,1.105,0,1,1,1.1-1.106A1.107,1.107,0,0,1,23.208,2.21Zm-4.421,0a1.105,1.105,0,1,1,1.1-1.106A1.106,1.106,0,0,1,18.788,2.21Zm-4.421,0A1.105,1.105,0,1,1,15.473,1.1,1.106,1.106,0,0,1,14.367,2.21Zm-4.421,0A1.105,1.105,0,1,1,11.052,1.1,1.106,1.106,0,0,1,9.946,2.21Zm-4.421,0A1.105,1.105,0,1,1,6.631,1.1,1.106,1.106,0,0,1,5.526,2.21ZM1.1,2.21A1.105,1.105,0,1,1,2.21,1.1,1.106,1.106,0,0,1,1.1,2.21Z" transform="translate(91.745 0)" fill="#cdcbdf"/>
      <circle id="Shape-2" data-name="Shape" cx="24.566" cy="24.566" r="24.566" transform="translate(66.428 11.28)" fill="#dff1f7"/>
      <path id="Shape-3" data-name="Shape" d="M0,53.644a53.463,53.463,0,1,1,106.925,0Z" transform="translate(0 114.807)" fill="#dff1f7"/>
    </g>
    <g id="Plant" transform="translate(-28.902 96.705)">
      <g id="Plant-2" data-name="Plant" transform="translate(0 31.42) rotate(-42)">
        <g id="Groupe_27" data-name="Groupe 27" transform="translate(16.007 0.098)">
          <path id="Tracé_24" data-name="Tracé 24" d="M26.55,36.155s10.286,14.594-4.833,22.716A17.6,17.6,0,0,1,21.13,61.6H1.46a10.5,10.5,0,0,1-.233-7.5s-5.4-16,6.469-21.262c0,0-1.565-13.3,7.724-15.031,0,0,2.841-20.58,11.311-17.486,0,0,5.505,4.446.958,21.508C27.689,21.825,35.733,29.257,26.55,36.155Z" fill="#62cbd0"/>
        </g>
        <g id="Groupe_28" data-name="Groupe 28" transform="translate(25.664)">
          <path id="Tracé_25" data-name="Tracé 25" d="M.748,61.659,0,61.369C3.162,53.2,16.531.531,16.666,0l.776.2C17.308.728,3.927,53.447.748,61.659Z" fill="#fff"/>
        </g>
        <g id="Groupe_29" data-name="Groupe 29" transform="translate(38.06 14.794)">
          <rect id="Rectangle_2" data-name="Rectangle 2" width="7.285" height="0.802" transform="translate(0 2.297) rotate(-18.377)" fill="#fff"/>
        </g>
        <g id="Groupe_30" data-name="Groupe 30" transform="translate(28.101 18.787)">
          <rect id="Rectangle_3" data-name="Rectangle 3" width="0.802" height="10.39" transform="translate(0 0.577) rotate(-46.018)" fill="#fff"/>
        </g>
        <g id="Groupe_31" data-name="Groupe 31" transform="translate(32.831 35.91)">
          <rect id="Rectangle_4" data-name="Rectangle 4" width="9.773" height="0.802" transform="matrix(0.993, -0.115, 0.115, 0.993, 0, 1.125)" fill="#fff"/>
        </g>
        <g id="Groupe_32" data-name="Groupe 32" transform="translate(18.867 36.001)">
          <rect id="Rectangle_5" data-name="Rectangle 5" width="0.802" height="14.973" transform="matrix(0.646, -0.763, 0.763, 0.646, 0, 0.612)" fill="#fff"/>
        </g>
        <g id="Groupe_33" data-name="Groupe 33" transform="translate(28.38 53.396)">
          <rect id="Rectangle_6" data-name="Rectangle 6" width="15.444" height="0.802" fill="#fff"/>
        </g>
        <g id="Groupe_34" data-name="Groupe 34" transform="translate(29.633 79.759)">
          <rect id="Rectangle_7" data-name="Rectangle 7" width="0.802" height="14.109" transform="matrix(0.709, -0.705, 0.705, 0.709, 0, 0.565)" fill="#fff"/>
        </g>
        <g id="Groupe_35" data-name="Groupe 35" transform="translate(0 4.515)">
          <path id="Tracé_26" data-name="Tracé 26" d="M6.148,50.537S-8.23,70.936,12.905,82.29a24.547,24.547,0,0,0,.82,3.809h27.5c1.247-2.739,1.585-6.175.326-10.483,0,0,7.554-22.367-9.042-29.72,0,0,2.187-18.594-10.8-21.01,0,0-3.971-28.767-15.811-24.442,0,0-7.7,6.215-1.339,30.063C4.557,30.506-6.687,40.9,6.148,50.537Z" fill="#a7dffa"/>
        </g>
        <g id="Groupe_36" data-name="Groupe 36" transform="translate(5.38 4.377)">
          <path id="Tracé_27" data-name="Tracé 27" d="M23.366,86.438C18.922,74.96.189,1.021,0,.276L1.086,0c.189.745,18.906,74.619,23.325,86.034Z" fill="#fff"/>
        </g>
        <g id="Groupe_37" data-name="Groupe 37" transform="translate(2.417 25.056)">
          <rect id="Rectangle_8" data-name="Rectangle 8" width="1.121" height="10.184" transform="matrix(0.315, -0.949, 0.949, 0.315, 0, 1.064)" fill="#fff"/>
        </g>
        <g id="Groupe_38" data-name="Groupe 38" transform="translate(15.126 30.637)">
          <rect id="Rectangle_9" data-name="Rectangle 9" width="14.524" height="1.12" transform="matrix(0.72, -0.694, 0.694, 0.72, 0, 10.086)" fill="#fff"/>
        </g>
        <g id="Groupe_39" data-name="Groupe 39" transform="translate(6.045 54.572)">
          <rect id="Rectangle_10" data-name="Rectangle 10" width="1.121" height="13.66" transform="translate(0 1.113) rotate(-83.385)" fill="#fff"/>
        </g>
        <g id="Groupe_40" data-name="Groupe 40" transform="translate(22.567 54.7)">
          <rect id="Rectangle_11" data-name="Rectangle 11" width="20.929" height="1.12" transform="translate(0 13.525) rotate(-40.259)" fill="#fff"/>
        </g>
        <g id="Groupe_41" data-name="Groupe 41" transform="translate(4.378 79.015)">
          <rect id="Rectangle_12" data-name="Rectangle 12" width="21.588" height="1.121" fill="#fff"/>
        </g>
        <g id="Groupe_42" data-name="Groupe 42" transform="translate(28.386 74.928)">
          <rect id="Rectangle_13" data-name="Rectangle 13" width="19.722" height="1.12" transform="translate(0 13.984) rotate(-45.158)" fill="#fff"/>
        </g>
      </g>
    </g>
    <g id="Calendar" transform="translate(39.377 51.745)">
      <path id="Shape-4" data-name="Shape" d="M5.013,0H147.9a5.013,5.013,0,0,1,5.013,5.013v133.71a5.013,5.013,0,0,1-5.013,5.013H5.013A5.013,5.013,0,0,1,0,138.723V5.013A5.013,5.013,0,0,1,5.013,0Z" transform="translate(0 0)" fill="#8bb5fc"/>
      <path id="Shape-5" data-name="Shape" d="M132.354,100.268H107.287V75.2h25.067v25.066Zm-35.846,0H71.441V75.2H96.508v25.066Zm-35.6,0H35.846V75.2H60.913v25.066Zm-35.845,0H0V75.2H25.067v25.066Zm107.287-37.6H107.287V37.6h25.067V62.666Zm-35.846,0H71.441V37.6H96.508V62.666Zm-71.441,0H0V37.6H25.067V62.666Zm107.287-37.6H107.287V0h25.067V25.067Zm-35.846,0H71.441V0H96.508V25.067Zm-35.6,0H35.846V0H60.913V25.067Zm-35.845,0H0V0H25.067V25.067Z" transform="translate(10.027 32.838)" fill="#fff"/>
      <path id="Shape-6" data-name="Shape" d="M0,0H25.067V25.067H0Z" transform="translate(45.873 70.438)" fill="#4385f5"/>
      <path id="Shape-7" data-name="Shape" d="M5.013,0H147.9a5.013,5.013,0,0,1,5.013,5.013V23.062H0V5.013A5.013,5.013,0,0,1,5.013,0Z" transform="translate(0 0)" fill="#0060a2"/>
      <path id="Shape-8" data-name="Shape" d="M15.6,0l1.789,1.755L6.159,13.207,0,7.152,1.757,5.364l4.369,4.3Z" transform="translate(49.757 76.83)" fill="#fff"/>
    </g>
    <g id="Clock" transform="translate(13.307 4.87)">
      <circle id="Shape-9" data-name="Shape" cx="43.617" cy="43.617" r="43.617" transform="translate(0 0)" fill="#62cbd0"/>
      <circle id="Shape-10" data-name="Shape" cx="35.47" cy="35.47" r="35.47" transform="translate(8.272 8.272)" fill="#48a4a8"/>
      <path id="Shape-11" data-name="Shape" d="M0,34.905A34.932,34.932,0,0,1,45.354,1.591,35.476,35.476,0,0,1,31.177,69.584H30.9A34.911,34.911,0,0,1,0,34.905Z" transform="translate(12.565 9.628)" fill="#50b7bc"/>
      <path id="Shape-12" data-name="Shape" d="M36.029.784a2.507,2.507,0,1,1,3.643,3.445L18.446,26.675a2.507,2.507,0,0,1-2.993.494L1.336,19.7a2.507,2.507,0,0,1,2.343-4.432l12.433,6.574Z" transform="translate(23.563 28.075)" fill="#fff"/>
    </g>
    <g id="Mail" transform="translate(161.913 62.275)">
      <path id="Shape-13" data-name="Shape" d="M4.461,36.019,138.116.206a6.016,6.016,0,0,1,7.368,4.254L168.321,89.69a6.016,6.016,0,0,1-4.254,7.368L30.412,132.871a6.016,6.016,0,0,1-7.368-4.254L.206,43.387A6.016,6.016,0,0,1,4.461,36.019Z" transform="translate(0 0)" fill="#fbd1ac"/>
      <path id="Shape-14" data-name="Shape" d="M52.814,0l80.841,34.393L0,70.206Z" transform="translate(30.412 62.665)" fill="#f0b078"/>
      <path id="Shape-15" data-name="Shape" d="M0,35.813,133.655,0,82.54,76.544Z" transform="translate(4.461 0.206)" fill="#ee9141"/>
    </g>
    <g id="Men" transform="translate(203.889 0)">
      <path id="Shape-16" data-name="Shape" d="M8.355,21.46l-7.6-1.812.678-3.192q-2.871-5.044,0-12.595T15.18,3.524L16.5,9.732a2.538,2.538,0,0,0-1.913,2.574c0,1.913-1.487,2.621-3.266,3.025Q9.544,15.735,8.355,21.46Z" transform="matrix(0.899, -0.438, 0.438, 0.899, 1.309, 6.502)" fill="#fe9f9f"/>
      <path id="Shape-17" data-name="Shape" d="M1.611,17.444s2.6,3.938,5.054,1.863,1.8-3.6.6-4.062-1.45-2.954,0-3.332,2.344,1.613,2.756,0-.266-3.275,1.616-3.275,6.266.71,7.134-2.177S17.354,0,12.309,0,2.537,2.485.647,6.883,1.611,17.444,1.611,17.444Z" transform="matrix(0.899, -0.438, 0.438, 0.899, -2.813, 4.52)" fill="#221e41"/>
      <path id="Shape-18" data-name="Shape" d="M18.066,2.59q-3.687-.6-3.479,3.068c.207,3.664,4.05,7.177-2.8,10.729s-4.619,10.32.142,11.9q-13.786-3.9-11.634-13.3c2.152-9.394,9.883-4.079,10.151-10.664q.268-6.585,8.624-3.139Z" transform="matrix(0.899, -0.438, 0.438, 0.899, -15.037, 15.085)" fill="#221e41"/>
      <path id="Shape-19" data-name="Shape" d="M4.192,21.652,0,6.008.867,0,18.45,6.346l8.276,9.268Z" transform="translate(12.185 62.202)" fill="#211d41"/>
      <path id="Shape-20" data-name="Shape" d="M1.325,0,7.934,3.679l-.7,5.8,6.549,5.365L12.1,19.233,3.546,13.906A7.52,7.52,0,0,1,.139,6.084Z" transform="translate(0.021 42.505)" fill="#ff7070"/>
      <path id="Shape-21" data-name="Shape" d="M9.684,0l3.5,13.062-6.3,12.059L0,19.982l4.16-15.5Z" transform="translate(0 22.809)" fill="#ec6142"/>
      <path id="Shape-22" data-name="Shape" d="M0,4.1.089,0l5.6.536L4.844,5.087Z" transform="translate(52.114 96.751)" fill="#fe9f9f"/>
      <path id="Shape-23" data-name="Shape" d="M0,13.744,40.162,2.983,41.449,0l.66,2.461,4.913-1.317q.337,4.105-1.51,5.615T39.444,8.386L2.649,23.632Z" transform="translate(29.136 4.97)" fill="#fe9f9f"/>
      <path id="Shape-24" data-name="Shape" d="M2.367,2.246,23.85,0,46.96,1.815a7.269,7.269,0,0,1,6.434,9.2L46.22,36.776l-7.2-.574,1.8-23.7L20.172,18.037A16.471,16.471,0,0,1,0,6.391Z" transform="translate(12.279 61.692)" fill="#4385f5"/>
      <path id="Shape-25" data-name="Shape" d="M.341,0,6.014.5,9.5,2.01c1.755.8,3.257,1.195,3.081,3.2a.865.865,0,0,1-.846.868L1.1,5.151A1.2,1.2,0,0,1,0,3.847Z" transform="translate(51.176 100.39)" fill="#211d41"/>
      <path id="Shape-26" data-name="Shape" d="M29.7,0l3.173,11.84L24.443,14.1l8.5,31.711L9.306,52.141.361,18.76A10.528,10.528,0,0,1,7.806,5.865l3.189-.854Z" transform="translate(2.881 16.086)" fill="#ec6142"/>
      <path id="Shape-27" data-name="Shape" d="M31.346,29.28l.254-1.736.248.036-.254,1.736Zm.617-4.217.255-1.736.248.036L32.212,25.1Zm.618-4.217.255-1.736.248.036-.254,1.736ZM33.2,16.63l.254-1.736.249.036-.255,1.736Zm.618-4.216.254-1.736.248.036-.255,1.736ZM34.435,8.2l.131-.89a3.368,3.368,0,0,0,.016-.837l.249-.026a3.635,3.635,0,0,1-.017.9l-.131.89ZM10.908,5.719l.056-.007L12.648,5.5l.032.248L11,5.962l-.059.007ZM6.677,5.463l.087-.235a8.913,8.913,0,0,0,1.674.441l-.04.248A9.169,9.169,0,0,1,6.677,5.463Zm8.458-.275,1.741-.219.032.248-1.741.219Zm4.228-.532L21.1,4.437l.031.248-1.741.219Zm4.228-.532,1.741-.219.032.249-1.741.218Zm8.446-.579L32.1,3.3a3.608,3.608,0,0,1,1.6.867l-.171.184A3.357,3.357,0,0,0,32.037,3.546ZM3.594,3.555,3.107,3.1l.172-.183.486.456a8.967,8.967,0,0,0,.825.686l-.148.2A9.127,9.127,0,0,1,3.594,3.555Zm24.226.038,1.741-.218.031.248-1.74.219ZM0,.183.172,0l1.28,1.2-.172.183Z" transform="translate(23.943 66.825)" fill="#a587ff"/>
    </g>
  </g>
</svg>
