<svg xmlns="http://www.w3.org/2000/svg" width="55" height="55" viewBox="0 0 55 55">
  <path id="fi-rr-gallery" d="M43.542,0H29.792A11.472,11.472,0,0,0,18.333,11.458v.229A11.479,11.479,0,0,0,9.167,22.917v.229A11.479,11.479,0,0,0,0,34.375v9.167A11.472,11.472,0,0,0,11.458,55h13.75A11.472,11.472,0,0,0,36.667,43.542v-.229a11.479,11.479,0,0,0,9.167-11.229v-.229A11.479,11.479,0,0,0,55,20.625V11.458A11.472,11.472,0,0,0,43.542,0ZM4.583,34.375A6.875,6.875,0,0,1,11.458,27.5h13.75a6.848,6.848,0,0,1,6.045,3.667L23.336,39.1,22.248,38a4.565,4.565,0,0,0-6.206-.254L5.452,46.826a6.783,6.783,0,0,1-.869-3.284Zm27.5,9.167a6.875,6.875,0,0,1-6.875,6.875H11.458A6.809,6.809,0,0,1,8.9,49.91l10.1-8.66,1.091,1.1c1.79,1.789,6.481,0,6.481,0l5.518-5.53ZM41.25,32.083a6.875,6.875,0,0,1-4.583,6.453V34.375A11.472,11.472,0,0,0,25.208,22.917H13.75a6.875,6.875,0,0,1,6.875-6.875h13.75a6.875,6.875,0,0,1,6.875,6.875Zm9.167-11.458a6.875,6.875,0,0,1-4.583,6.453V22.917A11.472,11.472,0,0,0,34.375,11.458H22.917a6.875,6.875,0,0,1,6.875-6.875h13.75a6.875,6.875,0,0,1,6.875,6.875ZM9.167,34.375a2.292,2.292,0,1,1,2.292,2.292A2.292,2.292,0,0,1,9.167,34.375Z" fill="#1ec501"/>
</svg>
