<svg id="published_with_changes-24px" xmlns="http://www.w3.org/2000/svg" width="19" height="19" viewBox="0 0 19 19">
  <rect id="Rectangle_1547" data-name="Rectangle 1547" width="19" height="19" fill="none"/>
  <path id="Tracé_946" data-name="Tracé 946" d="M13.213,8.183,8.968,12.4a.751.751,0,0,1-1.057,0L5.788,10.289a.737.737,0,0,1,0-1.049h0a.751.751,0,0,1,1.057,0l1.59,1.578,3.713-3.684a.751.751,0,0,1,1.057,0h0A.731.731,0,0,1,13.213,8.183ZM3.5,9.5A5.894,5.894,0,0,1,5.465,5.124L6.612,6.263a.375.375,0,0,0,.638-.268V2.8a.37.37,0,0,0-.375-.372H3.658a.368.368,0,0,0-.263.633l1,1A7.367,7.367,0,0,0,2,9.5a7.467,7.467,0,0,0,5.82,7.256.759.759,0,0,0,.93-.729h0a.756.756,0,0,0-.592-.729A5.964,5.964,0,0,1,3.5,9.5ZM17,9.5a7.467,7.467,0,0,0-5.82-7.256.759.759,0,0,0-.93.729h0a.756.756,0,0,0,.592.729A5.964,5.964,0,0,1,15.5,9.5a5.894,5.894,0,0,1-1.965,4.376l-1.148-1.139a.375.375,0,0,0-.638.268V16.2a.37.37,0,0,0,.375.372h3.218a.368.368,0,0,0,.263-.633l-1.005-1A7.367,7.367,0,0,0,17,9.5Z" transform="translate(-0.5 -0.5)" fill="#0060a2"/>
</svg>
