<svg xmlns="http://www.w3.org/2000/svg" width="24.009" height="24.008" viewBox="0 0 24.009 24.008">
  <g id="fi-rr-refresh" transform="translate(0.004 0.004)">
    <path id="Tracé_1541" data-name="Tracé 1541" d="M23,12a.982.982,0,0,0-.988.878A9.986,9.986,0,0,1,4.924,19H7.669a1,1,0,1,0,0-2h-4a2,2,0,0,0-2,2v4a1,1,0,0,0,2,0V20.562A11.977,11.977,0,0,0,24,13.1,1.007,1.007,0,0,0,23,12Z" fill="#0060a2"/>
    <path id="Tracé_1542" data-name="Tracé 1542" d="M21.331,0a1,1,0,0,0-1,1V3.438A11.977,11.977,0,0,0,0,10.9,1.007,1.007,0,0,0,1,12a.982.982,0,0,0,.988-.878A9.986,9.986,0,0,1,19.076,5H16.331a1,1,0,1,0,0,2h4a2,2,0,0,0,2-2V1A1,1,0,0,0,21.331,0Z" fill="#0060a2"/>
  </g>
</svg>
