<svg id="salon_icon" data-name="salon icon" xmlns="http://www.w3.org/2000/svg" width="27" height="19.212" viewBox="0 0 27 19.212">
  <path id="Tracé_971" data-name="Tracé 971" d="M25.555,90a1.557,1.557,0,1,0,1.558,1.558A1.559,1.559,0,0,0,25.555,90Zm0,2.077a.519.519,0,1,1,.519-.519.519.519,0,0,1-.519.519Zm0,0" transform="translate(-21.92 -82.212)" fill="#2a2a43"/>
  <path id="Tracé_972" data-name="Tracé 972" d="M253.555,90a1.557,1.557,0,1,0,1.557,1.557A1.559,1.559,0,0,0,253.555,90Zm0,2.077a.519.519,0,1,1,.519-.519.519.519,0,0,1-.519.519Zm0,0" transform="translate(-230.189 -82.212)" fill="#2a2a43"/>
  <path id="Tracé_973" data-name="Tracé 973" d="M27,69.633A3.633,3.633,0,0,0,23.3,66a3.677,3.677,0,0,0-3.573,3.685v1.745a23.746,23.746,0,0,0-6.231-.757,23.746,23.746,0,0,0-6.231.757v-1.8a3.635,3.635,0,1,0-4.154,3.6v2.113a2.08,2.08,0,0,0,2.077,2.077V78.98a.52.52,0,0,0,.519.519H7.268a.521.521,0,0,0,.465-.287l.895-1.79h9.743l.895,1.79a.519.519,0,0,0,.465.287h1.558a.52.52,0,0,0,.519-.519V77.422a2.08,2.08,0,0,0,2.077-2.077V73.231A3.64,3.64,0,0,0,27,69.633ZM6.947,78.46H6.229V77.422H7.466Zm13.821,0H20.05l-.519-1.038h1.237Zm2.6-6.231a.52.52,0,0,0-.519.519v2.6a1.04,1.04,0,0,1-1.038,1.038H5.191a1.04,1.04,0,0,1-1.038-1.038v-2.6a.52.52,0,0,0-.519-.519,2.6,2.6,0,1,1,2.6-2.6v2.116a8.625,8.625,0,0,0-1.293.547l.508.906c.027-.016,2.745-1.492,8.054-1.492s8.027,1.476,8.053,1.491l.509-.905a8.625,8.625,0,0,0-1.293-.547V69.685a2.635,2.635,0,0,1,2.551-2.647,2.6,2.6,0,1,1,.045,5.192Zm0,0" transform="translate(0.002 -60.287)" fill="#2a2a43"/>
  <path id="Tracé_974" data-name="Tracé 974" d="M37.038,2.077a1.04,1.04,0,0,1,1.038-1.038H54.692a1.04,1.04,0,0,1,1.038,1.038v2.6h1.038v-2.6A2.08,2.08,0,0,0,54.692,0H38.077A2.08,2.08,0,0,0,36,2.077v2.6h1.038Zm0,0" transform="translate(-32.884)" fill="#2a2a43"/>
  <rect id="Rectangle_1554" data-name="Rectangle 1554" width="1.149" height="1.149" transform="translate(10.34 2.872)" fill="#2a2a43"/>
  <rect id="Rectangle_1555" data-name="Rectangle 1555" width="0.574" height="1.149" transform="translate(13.212 5.744)" fill="#2a2a43"/>
  <rect id="Rectangle_1556" data-name="Rectangle 1556" width="0.574" height="1.149" transform="translate(8.042 5.744)" fill="#2a2a43"/>
  <rect id="Rectangle_1557" data-name="Rectangle 1557" width="1.149" height="1.149" transform="translate(10.34 8.042)" fill="#2a2a43"/>
  <rect id="Rectangle_1558" data-name="Rectangle 1558" width="1.149" height="1.149" transform="translate(15.51 2.872)" fill="#2a2a43"/>
  <rect id="Rectangle_1559" data-name="Rectangle 1559" width="0.574" height="1.149" transform="translate(18.382 5.744)" fill="#2a2a43"/>
  <rect id="Rectangle_1560" data-name="Rectangle 1560" width="1.149" height="1.149" transform="translate(15.51 8.042)" fill="#2a2a43"/>
</svg>
