<svg id="fi-rr-stats" xmlns="http://www.w3.org/2000/svg" width="24" height="24" viewBox="0 0 24 24">
  <path id="Tracé_982" data-name="Tracé 982" d="M23,22H3a1,1,0,0,1-1-1V1A1,1,0,1,0,0,1V21a3,3,0,0,0,3,3H23a1,1,0,0,0,0-2Z" fill="#fff"/>
  <path id="Tracé_983" data-name="Tracé 983" d="M15,20a1,1,0,0,0,1-1V12a1,1,0,0,0-2,0v7A1,1,0,0,0,15,20Z" fill="#fff"/>
  <path id="Tracé_984" data-name="Tracé 984" d="M7,20a1,1,0,0,0,1-1V12a1,1,0,0,0-2,0v7A1,1,0,0,0,7,20Z" fill="#fff"/>
  <path id="Tracé_985" data-name="Tracé 985" d="M19,20a1,1,0,0,0,1-1V7a1,1,0,0,0-2,0V19A1,1,0,0,0,19,20Z" fill="#fff"/>
  <path id="Tracé_986" data-name="Tracé 986" d="M11,20a1,1,0,0,0,1-1V7a1,1,0,0,0-2,0V19A1,1,0,0,0,11,20Z" fill="#fff"/>
</svg>
