<svg xmlns="http://www.w3.org/2000/svg" width="44.001" height="48" viewBox="0 0 44.001 48">
  <path id="fi-rr-location-alt" d="M23,32a6,6,0,0,0,2.684-.628l4-2A5.972,5.972,0,0,0,33,24V18.066A5.97,5.97,0,0,0,29.684,12.7l-4-2a6.028,6.028,0,0,0-5.366,0l-4,2A5.97,5.97,0,0,0,13,18.066V24a5.972,5.972,0,0,0,3.316,5.368l4,2A6,6,0,0,0,23,32Zm-6-8V18.066a2,2,0,0,1,.1-.6l4.36,2.18a3.44,3.44,0,0,0,3.076,0l4.36-2.18a2,2,0,0,1,.1.6V24a1.988,1.988,0,0,1-1.106,1.79l-4,2a2.018,2.018,0,0,1-1.79,0l-4-2A1.988,1.988,0,0,1,17,24ZM37,44H31.582l6.974-6.444A22,22,0,1,0,7.5,37.612L14.418,44H9a2,2,0,0,0,0,4H37a2,2,0,0,0,0-4ZM10.272,9.272a18,18,0,0,1,25.514,25.4l-7.97,7.362A7.026,7.026,0,0,1,18.142,42l-7.87-7.272a18.02,18.02,0,0,1,0-25.456Z" transform="translate(-1 0)" fill="#1ec501"/>
</svg>
